<?xml version="1.0" encoding="UTF-8"?>
<svg version="1.1" viewBox="0 0 1412 1908" width="353" height="477" xmlns="http://www.w3.org/2000/svg">
<path transform="translate(581,90)" d="m0 0h43l5 3 2 4 9 3 15 6h11l14 2 8 2 8 4 3 3 14 5 12 6 11 2 9 3 19 5 16 3 8 5 7 2 36 2 9 3 4 2v2l27 1 13 4 7 4 6 2 8 1 26 1 17-1 1 5-9 3-8 2-2 4-9 3-23 2-5 2-22 3-8 2-16 1h-8l-5 1-3 4-12 2-54 2-7 2-21 2-4 4-2 11v12l-3 12-4 5-5 21-5 9-11 1v6l-5 4-6 2-2 5-7 6v15l5 2 10 1 6 6v2l4 2 2 3 3 12 1 2 5-1 13-5 5-2 13 2 6 4 12 3 12 1 6 3 4 1 4-3 12-2 21-1 7-4 6-3 20-4 20 4 5 3 8 5 10 6 13 8 11 9 6 8 6 9 5 9 8 14 8 8-1 7-3 8-5 2-1 2v35l2 13v5l-3 3v10l3 8 6 4 1 1 1 11 3 7 5 8 7 18 4 7 4 13 10 20 6 10 5 15 6 10v2l5 2 4-1 6-8 6-1h8l5 5 3 23 3 6 2 26 1 35 1 6 4 2 1 2v14l-3 18-6 23-3 6-4 2-3 17-6 5-3 8-4 21-6 34-3 12-8 18-6 20-7 31-6 19-2 15v9l-2 13-6 18-7 13-8 11-7 7-6 4v13l5 17 4 12 5 8 3 17 3 27-4-2-8-7-21-21-5-7-3 1-5 17-7 8-2 5-3 20 1 7 2 5 3 12 7 6 3 7 14 1 13 3 3 12 8 9 8 10 6 15 6 12 7 21 5 14 6 22 2 16 2 43-1 19 1 23 3 19 4 12 4 25 4 15 5 9v2l5 2 4 4 4 11 6 9 4 9v2l5 2 7 6 5 16 1 8v24l-6 7-3 9v9l3 8 5 6 2 14 5 5 3 7 1 11 1 25-2 8-6 5-7 6-3 1-28 1h-24l-35-1-9-4-6-4-3-3-2-10v-16l1-7 2-36-1-43v-29l4-10 1-3v-7l-1-3v-15l-4-22-2-20h-2l-3-7-5-20-9-16-2-4-6-5-7-8-9-9v-2l-3-1-2-3v-3l-4-2-7-7-10-13-7-10-8-14v-3l-4-1-4-11-3-16-4-1-7 3-6 6-4 13-9 11-42 42-14 8-3-1-1-4-1-30v-51l1-10 8-13 3-11 5-4 6-15 6-8 4-12 7-8 2-15v-23l2-5 5-5 1-4v-17l-5 1-5 4-11 1-8-4-7-6-9-17-10-19-8-15-3-7-4-20-1-1h-8l-1 3v47l3 23 5 27 1 12 1 43v21l-4 1-8-7-12-12-7-6v-2l-4-2-10-10-11-7v2l4 2 1 18v97l-1 3-5-1-24-21-10-14-7-11-6-8-7-6-10-18-5-5-3-2 1 10 5 25-3 3-4-4-4-9-11-13-21-21-5-1-1 6v13l2 7 5 4 1 26-1 77-1 2-5 3-8 15-7 10-7 11-6 11-4 5-9 17-6 17-5 10-1 8v75l1 4 16 2 2 2 3 30v23l-2 12-2 18-5 12-6 9-6 2h-58l-2-1-4-18-21 1h-6l-1 4-10 3-8 3-5 5-10 9-8 4-16 5-13 2-13 1h-58l-13-4-10-6-3-4v-6l3-6 6-7 6-10 15-11 5-3h13l4-8 10-4 5-5 10-2 8-2 1-4 7-3 9-3 4-8 15-4 9-7 6-4v-7l-1-6 7-10 3-2 2-7 9-9 4-5 5-3 4-5 17-1 1-8v-103l-1-95v-6l-9-7-8-8-5-15-4-2-3-7-3-14-6-19-1-7v-26l8-13 3-7 7-5 8-12 2-8v-7l-6 1-5 6-5 1-2-2v-9l3-21 6-27 1-7 2-37 1-12 6-9 1-2 1-29 4-17 4-16 3-15 6-8 2-6v-10l-1-10 2-9 1-14 6-16 3-16 1-32-3-15v-12l-8 4-13 8-10 10-7 8-8 9-10 13-8 12-8 10-8 7 1 4 7 6-2 10-6 5-7 11-3 7v11l5 10 8 10 6 5 4 5 8 8 13 1 6 3-1 7-7 11-5 8-10 9-11 9-4 3-8 2-3 14-4 8-4 2h-20l-6-4-10-9-15-13-14-15-2-11-1-13 1-39 3-10 8-9 8-4 1-14v-22l3-11 6-10 4-8 7-2v-12l5-15 4-8 1-4 1-17 2-9 8-10 4-3h6v-9l2-6v-14l3-16 6-19 3-12 3-6h2l6-15 6-9 4-8 10-11h19l7-3 1-12v-13l2-55 1-50 1-4-9-3-12-11-2-6v-18l-10-5-1-8 2-29 3-7 4-2 6-9 7-9 4-6 8-5 4-3h2l1-3 4-3 6-1h7l4-2 4-5 8-2 37-2 5-2 7-8 3-6 11-10 2-1 15-1 16-7 7-3 8-2v-4l-5-2-13-3-10-5-14-4-8-4-2-5-3-1-8-10-6-7-8-11-5-10-2-9-5-2-5-7-6-4-2-5-2-11-4-5-2-5-3-20-1-7-19 3-27 2-29 1-47 3-4 3-16 2-53 2h-42l-1-7 5-3 14-4 11-4 13-4 6-4 16-3 12-7 12-5 7-5 13-2 7-7 13-2 6-3h2l2-4 5-2 12-2h2l1-5 15-6 8-6 10-2 5-2 1-6 7-3 7-1 4-2v-2l6-4 8-3 9-8 3-7 4-3 5-1 1-4 7-3 11-1 9-6 5-3 11-1 5-1 2-7 11-7zm268 452-2 2-3 9-2 11-10 15-11 16-7 10-8 12-15 15-7 9-7 18-3 6-11-1-18-6h-2l-1 6-2 33-1 7-5 4-1 6 10 2 28 2 5 12 1 10 7 12 9 5 1 26 6 1 27 1-3 16v11l18 3 1 10 1 36-7 1-3 2 2 5 4 3 3 1 2 14 4 10 6 10 4 4h12l3 1 3 6 8 4 2 14 2 3 13-1 11-7 12-3 2-1v-9l-5-10-2-9v-6l4-5 10-6 4-5v-22l-7-43v-27l-1-1-10-1v-66l7-2 3-8 1-7 7-6 1-3 1-19-13-13-7-10-2-10h2l1 4 2 1-1-5-4-4-2 1-1-5-6-11-6-5-10-15-10-13-6-11-3-8-3-1-2-5-3-10-3-3-11-6zm-326 127-4 8-3 8-5 5-3 7-1 5v10l4 4h18l1-3-1-28-2-10-2-6zm8 48m-1 507-2 6v12l2 1h16l2-1v-6l-6-5h-2l-2-4-4-3zm375 197m2 4 1 2z" fill="#1D1C22"/>
<path transform="translate(665,425)" d="m0 0 8 3 8 5 4 7 21 1 5 2 4 4 4 7v20l-1 13 4 9 3 5 4 14 3 9 5 5 5 6 5 12 5 7v2h2l3 4 6 3 8 6 10 4 6 8-2 5-4 8-4 5-4 6-5 3-3 5-6 3-3 6h-2v2l-5 3-2 4h-2v2l-9 3-17-1-10-1-7 3-3 6-4 4h-2l-1 4-1 2h-2l-1 4-3 1-2 6-2 4h-2l-1 6-5 7-4 11-7 9-4 4-7 3-7 5-3 3-5 3-5 7-6 4-7 14-7 5-1 4 27 3 36-2 13-1 14-7 17-4 15-5 8-2 8-3 4-7v-5l-10-2-6-2v-1l21 1 14 1 3 5 3 8 1 10 7 12 8 4 1 1v26l27 1 6 1-3 27 12 1 7 2 1 10 1 30-1 6-9 3 2 5 7 4 2 14 4 10 6 10 3 3h12l4 2 3 6 6 2 1 4 1 17 1 8-1 8-5 15 1 5 1 8-4 13-2 1-2 5-5 2-10 3-5 4-7 8-7-1v2l-3 3-4 10-5 11-6 12-1 4h-2l-3 9-4 10-7 15-2 6-1 11-1 2v8l-1 11h-2l1 3-4 11-1 5h-2l-2 13-1 2h-2l-1 5h-2l-1 3h-6l-2-4-3-12-2-4-4-1-2-6-1-1v-6h-2l-1-5-5-3-2-8-2-10-1-1h-8l-1 3v47l3 23 5 27 1 12 1 43v21l-4 1-8-7-12-12-7-6v-2l-4-2-10-10-11-7v2l4 2 1 18v97l-1 3-5-1-24-21-10-14-7-11-6-8-7-6-10-18-5-5-3-2 1 10 5 25-3 3-4-4-4-9-11-13-21-21-5-1-1 6v13l2 7 5 4 1 26-1 77-1 2-5 3-8 15-7 10-7 11-6 11-4 5-9 17-6 17-5 10-1 8v75l1 4 16 2 2 2 3 30v23l-2 12-2 18-5 12-6 9-6 2h-58l-2-1-4-18-21 1h-6l-1 4-10 3-8 3-5 5-10 9-8 4-16 5-13 2-13 1h-58l-13-4-10-6-3-4v-6l3-6 6-7 6-10 15-11 5-3h13l4-8 10-4 5-5 10-2 8-2 1-4 7-3 9-3 4-8 15-4 9-7 6-4v-7l-1-6 7-10 3-2 2-7 9-9 4-5 5-3 4-5 17-1 1-8v-103l-1-95v-6l-9-7-8-8-5-15-4-2-3-7-3-14-6-19-1-7v-26l8-13 3-7 7-5 8-12 2-8v-7l-6 1-5 6-5 1-2-2v-9l3-21 6-27 1-7 2-37 1-12 6-9 1-2 1-29 4-17 4-16 3-15 6-8 2-6v-10l-1-10 2-9 1-14 6-16 3-16 1-32-3-15v-12l-8 4-13 8-9 9h-2l1-4 5-4 2-4h2l1-3 10-5 6-4h2l1-3 4-4 2-6 7-4 7-3h3l-1-3-10-6 1-7 2-10h2l3-11-1-9-1-1v-12l-4 1h-7l-4-4-3-1v-2l-7 2-14-1-6-3-4-6-1-5v-13l3-14 3-6 8-4 21 1 13 5 3 4 4 1 1 2v8l1 3 2 1 2-6-1-12 2-10 2-15 7-10 6-11 3-5-1-7h-2l-1-4h-2v-2l-4-2-10-10-3-7-1-10 3-11h3v-2l8-5 1-7-7-10-8-8v-2l-3-1-4-6-3-3-3-5v-2h-2l-2-11v-8l3-11 1-4v-6l2-8 2-9 4-6 2-1 1-4h2v-2h2l1-5h-5l-7-3-3-6v-8l4-4 11-5h5l5 4 5-1 7-8 6-3 4-4h7l8 5 9 5 8 1 1 4-1 5 2 4h2l2 3 12 1 14-7 2-4 7-5h2l2-4 13-6 7-4 8-3 8-5 13-6 2-2zm-142 244-4 8-3 8-5 5-3 7-1 5v10l4 4h18l1-3-1-28-2-10-2-6zm8 48m-1 507-2 6v12l2 1h16l2-1v-6l-6-5h-2l-2-4-4-3z" fill="#302E3B"/>
<path transform="translate(905,616)" d="m0 0 7 2v4l6 1 6 7 5 5 4 6-4 2-2 6v3l4 3v2l7-2 1-6 4-3 3-1h14l3 2 3 7 5 5 3 9 1 13-2 13-4 6-7 5-13 4h-6l-2 5-4 5-1 4-5 6-2 5v3h-2l1 16-1 2 2 1-1 1 1 10 3 4 7 1 16-4 10-5 8-1h13l11 1 11-2h14l13 4h13l1-8v-12l-1-5v-11l2-33 2-1 1 35 1 6 4 2 1 2v14l-3 18-6 23-3 6-4 2-3 17-6 5-3 8-4 21-6 34-3 12-8 18-6 20-7 31-6 19-2 15v9l-2 13-6 18-7 13-8 11-7 7-6 4v13l5 17 4 12 5 8 3 17 3 27-4-2-8-7-21-21-5-7-3 1-5 17-7 8-2 5-3 20 1 7 2 5 3 12 7 6 3 7 14 1 13 3 3 12 8 9 8 10 6 15 6 12 7 21 5 14 6 22 2 16 2 43-1 19 1 23 3 19 4 12 4 25 4 15 5 9v2l5 2 4 4 4 11 6 9 4 9v2l5 2 7 6 5 16 1 8v24l-6 7-3 9v9l3 8 5 6 2 14 5 5 3 7 1 11 1 25-2 8-6 5-7 6-3 1-28 1h-24l-35-1-9-4-6-4-3-3-2-10v-16l1-7 2-36-1-43v-29l4-10 1-3v-7l-1-3v-15l-4-22-2-20h-2l-3-7-5-20-9-16-2-4-6-5-7-8-9-9v-2l-3-1-2-3v-3l-4-2-7-7-10-13-7-10-8-14v-3l-4-1-4-11-3-16-4-1-7 3-6 6-4 13-9 11-42 42-14 8-3-1-1-4-1-30v-51l1-10 8-13 3-11 5-4 6-15 6-8 4-12 7-8 2-15v-23l2-5 5-5 1-4v-17l-5 1-5 4-11 1-8-4-7-6-9-17-10-19-8-15-3-9 5 2 2 4-1 2h2l2 7 1 4v2l5 1 4 10 2 10 6-1 1-2h2l1-5h2l3-15h2l1-7 3-10v-2h2l-1-6 1-6v-7l1-6 2-10 4-10 6-12v-2h2l1-8 3-5h2l1-7 5-9 5-11 5-12 3-1v-2h7l10-11 10-4 7-1 2-6h2l1-7 2-8-1-9-1-4 3-7 2-6 1-10-1-9-1-17 2 1 2 14 1 2 13-1 11-7 14-3-2-12-4-7-2-9v-6l5-6 10-6 3-4v-22l-7-43v-27l-10-2-1-5v-59l3-3 5-2 3-14 7-6 1-3 1-19-13-13-7-10-1-10h2l2 4-1-4-3-3h-3l-1-5-6-11zm0 805m2 4 1 2z" fill="#639499"/>
<path transform="translate(514,1117)" d="m0 0 4 2 5 13 5 17 5 23 5 10 2 10 6 12 3 4 2 6 2 5 2 7h2l5 13 6 10 4 8v11l1 4h2l3 6 1 16 6 7 2 1 1 26-1 77-1 2-5 3-8 15-7 10-7 11-6 11-4 5-9 17-6 17-5 10-1 8v75l1 4 16 2 2 2 3 30v23l-2 12-2 18-5 12-6 9-6 2h-58l-2-1-4-18-21 1h-6l-1 4-10 3-8 3-5 5-10 9-8 4-16 5-13 2-13 1h-58l-13-4-10-6-3-4v-6l3-6 6-7 6-10 15-11 5-3h13l4-8 10-4 5-5 10-2 8-2 1-4 7-3 9-3 4-8 15-4 9-7 6-4v-7l-1-6 7-10 3-2 2-7 9-9 4-5 5-3 4-5 17-1 1-8v-103l-1-95v-6l-9-7-8-8v-8l-2-9-1-2h2v-2h-2l1-2 1-1-4-1-3-7-2-14-3-8v-8l-2-10 1-11 4-1 2-6h3l5 1 4-1 2-6 2-5 5-1 2 1 2-8v-8l1-5h-3v-2h-2l-2-19-4-2 2-4 8-3h4v-2l7-2 1-3 7-4 3-1 2-4 7-7 3-5h2l1-4 3-1 3-9 3-6 6-4 4-6zm16 107-2 6v12l2 1h16l2-1v-6l-6-5h-2l-2-4-4-3z" fill="#1E1D23"/>
<path transform="translate(581,90)" d="m0 0h43l5 3 2 4 9 3 15 6h11l14 2 8 2 8 4 3 3 14 5 12 6 11 2 9 3 19 5 16 3 8 5 7 2 36 2 9 3 4 2v2l27 1 13 4 7 4 6 2 8 1 26 1 17-1 1 5-9 3-8 2-2 4-9 3-23 2-5 2-22 3-8 2-16 1h-8l-5 1-3 4-12 2-54 2-7 2-21 2-4 2-5-1-13 1-20 4-26 2-17 3-3 1-28 3-44 2-20 2-22 4-12 2-23 3 2 19 6 16 2 3v14h2l-1 3-2-2-3-14-4-5-2-5-3-20-1-7-19 3-27 2-29 1-47 3-4 3-16 2-53 2h-42l-1-7 5-3 14-4 11-4 13-4 6-4 16-3 12-7 12-5 7-5 13-2 7-7 13-2 6-3h2l2-4 5-2 12-2h2l1-5 15-6 8-6 10-2 5-2 1-6 7-3 7-1 4-2v-2l6-4 8-3 9-8 3-7 4-3 5-1 1-4 7-3 11-1 9-6 5-3 11-1 5-1 2-7 11-7z" fill="#656364"/>
<path transform="translate(921,1221)" d="m0 0 5 1 2 2 22 1 8 2 3 12 8 9 8 10 6 15 6 12 7 21 5 14 6 22 2 16 2 43-1 19 1 23 3 19 4 12 4 25 4 15 5 9v2l5 2 4 4 4 11 6 9 4 9v2l5 2 7 6 5 16 1 8v24l-6 7-3 9v9l3 8 5 6 2 14 5 5 3 7 1 11 1 25-2 8-6 5-7 6-3 1-28 1h-24l-35-1-9-4-6-4-3-3-2-10v-16l1-7 2-36-1-43v-29l4-10 1-3v-7l-1-3v-15l-4-22-2-20h-2l-3-7-5-20-9-16-2-4-6-5-7-8-3-3-1-6-3-3-4-2 2-1-5-6v-5l-4-3-5-1-2-1v-5l4-1v-3l2-2-2-5v-6l-4-8-1-5-1-17 2-14 4-11 1-5 5-26 3-14 1-17 3-24 1-20z" fill="#1E1D23"/>
<path transform="translate(984,784)" d="m0 0h35l7 3 5 4 4 4 5 4v2l3 1-2 14-2 5-5 4-3 8-1 5h-1v-5l-5 1-2 25-2 10v5h-2l-1 6h-2l-3 9-1 5-1 10h-3v6l-4 2-2 16-3 10-5 2-2 7-1 9-4 7-1 5h-3l1 3-1 1-2 10-9 21-2 12-5 7-5 22-5 5-3 7-2 14-3 5-4 4-4 20-6 8-4 19-7 11-2 17-4 10-3 5-2 18-1 2-9 3-3 5-3 15-3 4-4 15-7 20-10 26-6 16-2 7-4 8-5 16-4 7-2 4-3 20-3 3-3 1-3 8-1 9-2 3-5 2-3 6-5 3h-4l-1 7-2 2-7 2-2 5-3 3-5 1-1 4-3 4h-5l-1-1-1-41v-32l2-8 3-3h2l3-6 2-14 7-3 4-15 6-4 1-2 1-13 5-5h2l3-10 4-16 5-10 2-11 1-7 6-10 4-11 5-18 5-16 10-30 10-31 15-45 3-7 5-17 4-2 2-5 3-7 4-14 3-11 3-7 3-12 4-9 4-15 2-10 4-7 3-10 3-26 3-9 3-10 2-9 1-15 4-9 5-10 6-21 5-10 2-9 8-10z" fill="#8FEDF9"/>
<path transform="translate(884,921)" d="m0 0 2 1 2 14 1 4 22 1 1-2h4v-2h2v-2l9-2 1 1v21l-2 5-5 1-1 11-2 11-4 10-4 13-1 8-5 7-2 5-3 1-2 5-3 14-4 10-3 9-5 18-4 10-4 15-3 8-6 17-3 12-2 2-3 8-2 11-8 26-4 12-1 2h-6l-5-5-1-5-7-2-16-1-11 2h-9l-10-18-10-19-8-15-3-9 5 2 2 4-1 2h2l2 7 1 4v2l5 1 4 10 2 10 6-1 1-2h2l1-5h2l3-15h2l1-7 3-10v-2h2l-1-6 1-6v-7l1-6 2-10 4-10 6-12v-2h2l1-8 3-5h2l1-7 5-9 5-11 5-12 3-1v-2h7l10-11 10-4 7-1 2-6h2l1-7 2-8-1-9-1-4 3-7 2-6 1-10-1-9z" fill="#51787B"/>
<path transform="translate(884,937)" d="m0 0 2 2 1 10-1 8-5 15 1 5 1 8-4 13-2 1-2 5-5 2-10 3-5 4-7 8-7-1v2l-3 3-4 10-5 11-6 12-1 4h-2l-3 9-4 10-7 15-2 6-1 11-1 2v8l-1 11h-2l1 3-4 11-1 5h-2l-2 13-1 2h-2l-1 5h-2l-1 3h-6l-1-3 3-1v-2h2l1-10 6-12 3-7 3-11 1-23-2-8-3-3-3-4v-2h-2l-7-8-1-3-4-2-11-10-9-7-6-7-3-9-1-72 2-9 5-1 5 3 4 1v2l5 1 13 4 8 3v2l9 3 14 8 5 5 9 6 7 4 4 3 9-1 9-2v-2h2l2-5v-6l-4-1-3-5 3-9 4-9 4-5 7-6 5-6h3v-2h2v-2l4-3z" fill="#444855"/>
<path transform="translate(479,867)" d="m0 0 4 5 2 3-1 4h-3v44l-3 12-4 4-2 6 1 7 2 9 3 1v11l4 14 5 7 4 4 3 10 2 12v11l-1 2 2 4 1 9 3 5 2 5 2 2 2 15-1 16-3 6h-2l-2 4-7 10h-2l-1 4-3 3-6 8-1 3h-2l-2 10-4 6h-2l-2 4-4 4h-2l-2 4-3 5-2 5-3 4-5 1v2l-7 2-2 3h-2l2 7h8l3 2v14l-3 5h-3l-1 3-2-1 4-6 2-8v-7l-6 1-5 6-5 1-2-2v-9l3-21 6-27 1-7 2-37 1-12 6-9 1-2 1-29 4-17 4-16 3-15 6-8 2-6v-10l-1-10 2-9 1-14 6-16 3-16 1-32z" fill="#454855"/>
<path transform="translate(905,616)" d="m0 0 7 2v4l6 1 6 7 5 5 4 6-4 2-2 6v3l4 3v2l7-2 1-6 4-3 3-1h14l3 2 3 7 5 5 3 9 1 13-2 13-4 6-7 5-13 4h-6l-2 5-4 5-1 4-5 6-2 5v3h-2l1 16-1 2 2 1-1 1 1 10 3 4 7 1 16-4 10-5 8-1h13l11 1 11-2h14l13 4h13l1-8v-12l-1-5v-11l2-33 2-1 1 35 1 6 4 2 1 2v14l-3 18-6 23-2 5-4-2-10-9-3-2v-2l-8-1-6-1h-34l-9 4-6 18-2 7-4 4-2 13-4 11-5 3-1 13-2 16-2 3-5-1-1-10 1-12 2-7 1-7-3-16-3-5v-2l-6-2-1-5-1-23-10-2-1-5v-59l3-3 5-2 3-14 7-6 1-3 1-19-13-13-7-10-1-10h2l2 4-1-4-3-3h-3l-1-5-6-11z" fill="#31303D"/>
<path transform="translate(611,376)" d="m0 0h1v5l-8 5-3 5-16 5h-10l-6 1-3 5-2 10h-2l-2 5-3 4h-4l-1 3-16 1h-8l-5 3-22-1-1 4-8 9-5-1-2 3h-2l-2 6-4 8-3 2-6 2-7 6-2 3h-2l-2 7-6 4-5 1-2 4-2 6-1 5-3 1-2 7-2 10 1 3 5 1 1 7v12l3 8 6 3 4 5 11 4v2h2l3 19-2 28-1 10-2 18-1 44v16l-4 4-6 3-5 6-9-2-2-5-5 3h-2l-1 4-7 2-1 13-5 6-5 15-3 4-1 4-3 2-2 7h2l-3 12-2 10-5 5 1 6-2 13v11l1 3-3 3v3l-6 2-2 4-2 6h-4l-2 5h-3l-2 9-1 4 1 11-1 4h-2v6l-4 8-2 10 2 1-2 3-2 6-7 9-5 5-3 6-2 3h-2v19l-1 12 1 5-2 2-2 1-1 4-5 6h-2l-1 4h-2l-1 7-3 1-2 12-1 14v19l2 11 4 4 3 9 4 4 6 3 3 3v2h2l4 8 5 2 3 4v3l3 1-2 2-12-11-14-12-14-15-2-11-1-13 1-39 3-10 8-9 8-4 1-14v-22l3-11 6-10 4-8 7-2v-12l5-15 4-8 1-4 1-17 2-9 8-10 4-3h6v-9l2-6v-14l3-16 6-19 3-12 3-6h2l6-15 6-9 4-8 10-11h19l7-3 1-12v-13l2-55 1-50 1-4-9-3-12-11-2-6v-18l-10-5-1-8 2-29 3-7 4-2 6-9 7-9 4-6 8-5 4-3h2l1-3 4-3 6-1h7l4-2 4-5 8-2 37-2 5-2 7-8 3-6 11-10 2-1 15-1 16-7 7-3 8-2z" fill="#343340"/>
<path transform="translate(691,324)" d="m0 0 7 1 6 6v2l4 2 2 3 3 12 1 2 5-1 13-5 5-2 13 2 6 4 12 3 12 1 6 3 4 1 4-3 12-2 21-1 7-4 6-3 20-4 20 4 5 3 8 5 10 6 13 8 11 9 6 8 6 9 5 9 8 14 8 8-1 7-3 8-5 2-1 2-1 10h-1l-2-10 4-9 3-3 1-6-6-2-2-4-5-1-6 1-7-1h-17l-8-4-10-6-8-5-4-6v-2l-6-1-1 1-23 2-5-2v-2l-8-1-10-6-9-9-3-9 2-8-2-3h-13l-3 3h-4v2l-5 2-7-1-4-3-12-1-6 2h-8l-10-3-2-2h-9v2l-9-1-3-1-8-1-3-4-1-6-3-1-1-4-3-1-2-4-3-2v-5l-6-2z" fill="#312F3C"/>
<path transform="translate(903,1194)" d="m0 0h7l6 3v10l6 4 6 5 3 7 14 1v1h-17l-3-3-4-1-3 12-1 20-3 27-1 14-5 26-3 15-1 4-4 11-2 14 1 19 4 10 2 10 1 3-3 1v3l-3 1-1 5 8 1 4 4v5l1 3 3 1-1 3 4 2v2l3 1v5l-6-5v-2l-3-1-2-3v-3l-4-2-7-7-10-13 1-3-5-15-5-2-1-1-1-13-3-5 1-5-1-3 3-8 2-9h2l1-11 2-6 1-23-1-11 1-5-6 1-3 10-4 7-3 10-3 7h-2l-1 6-6 3 1-14 5-15 2-3 2-8 1-9 4-9 6-18 4-7 1-5 2-4 3-14 3-4 5-15 1-8zm2 227m2 4 1 2z" fill="#4A6E71"/>
<path transform="translate(983,782)" d="m0 0h34l14 3 5 5 8 7 3 4-4 2-5-5-7-5v-2l-4-2-4-3-4-1h-35l-4 2-7 10-2 9-5 10-6 22-6 10-2 6-1 15-4 17-3 6-3 20-2 16-4 9-3 7-3 15-4 11-4 10-2 9-4 10-3 12-4 13-4 6-3 2-7 22-6 16-5 17-6 17-9 28-11 34-8 25-4 14-6 11-1 1-2 15-5 12-3 9-4 13-2 5-4 1-2 4-1 13-4 5-3 1-4 15-5 3h-3l-1 14-4 6-5 5-1 6v35l1 38h5l4-7h2l-2 5-2 4-7 1-3-4-1-34v-23l-1-4 1-6h-2l1-3v-8l-3 3-2 8 1 11v69l2 4-4 1-2-5-1-30v-51l1-10 8-13 3-11 5-4 6-15 6-8 4-12 7-8 2-15v-23l2-5 5-5 1-4v-17l-5 1-5 4-11 1-8-4-5-5 21-3 14 1 7 3 3 6v2l9 2 3-12 4-11 5-17 3-13 3-7 3-8 5-17 3-7 6-21 6-17 5-19 3-5 4-13 2-10 2-3h3l2-6 4-6 3-16 4-10 3-8 3-19 5-1 1-5v-21l-9 1v2h-2v2l-5 2h-15l-7-1v-1l13-2 11-7 14-3-2-12-4-7-2-9v-6l5-6 10-6 3-4v-22l-7-43v-26h1l1 27 4 1 4 4 3 7 2 15-2 11-1 5-1 9 1 8 4 1 2-8 1-17 2-7 5-2 1-5 5-20 4-5 6-22 5-4z" fill="#64979D"/>
<path transform="translate(984,784)" d="m0 0h35l7 3 5 4 4 4 5 4v2l3 1-2 14-2 5-4 3-4 1-1-6-1-2v-11l1-7-3-3-8-6-1-2-15-2-18 2v2l-5 5-5 10-4 13-5 9-2 6-1 7-3 6-5 16-3 23-4 15-2 4-3 21-3 13-6 13-6 20-5 17-5 14-9 27-6 11-6 16-5 14-6 18-6 16-5 15-6 21-26 78-7 24-6 16-3 13-6 11-3 6-3 8-4 4-3 10-4 5-4 7-3 7-3 9-3 4h-2l-1 8v19l1 20 2 20-1 2h2v-2l4-1v-2l9-9h5l2-6 4-6 8-7 6-8 2-4 2-10 3-5 4-2 1-2 3-20 2-4h2l3-10 2-9 7-14 5-15 6-12 7-20 6-16 8-26 3-10 7-9h2l3-17 3-9 4-7 3-15 6-12 3-9 3-11 1-3h2l1-5 3-11 3-9 5-8 4-18 4-5 4-11 2-10 4-6h2l3-12 3-14 4-6 4-17 3-7 4-5 3-16 4-9 4-7 1-9 3-7 1-6h3l4-16 5-23 3-9 1-5 2-14 4-5 4-1v3h2v7h-1v-5l-5 1-2 25-2 10v5h-2l-1 6h-2l-3 9-1 5-1 10h-3v6l-4 2-2 16-3 10-5 2-2 7-1 9-4 7-1 5h-3l1 3-1 1-2 10-9 21-2 12-5 7-5 22-5 5-3 7-2 14-3 5-4 4-4 20-6 8-4 19-7 11-2 17-4 10-3 5-2 18-1 2-9 3-3 5-3 15-3 4-4 15-7 20-10 26-6 16-2 7-4 8-5 16-4 7-2 4-3 20-3 3-3 1-3 8-1 9-2 3-5 2-3 6-5 3h-4l-1 7-2 2-7 2-2 5-3 3-5 1-1 4-3 4h-5l-1-1-1-41v-32l2-8 3-3h2l3-6 2-14 7-3 4-15 6-4 1-2 1-13 5-5h2l3-10 4-16 5-10 2-11 1-7 6-10 4-11 5-18 5-16 10-30 10-31 15-45 3-7 5-17 4-2 2-5 3-7 4-14 3-11 3-7 3-12 4-9 4-15 2-10 4-7 3-10 3-26 3-9 3-10 2-9 1-15 4-9 5-10 6-21 5-10 2-9 8-10z" fill="#76C9CE"/>
<path transform="translate(921,1221)" d="m0 0 5 1 2 2 22 1 8 2 3 12 8 9 8 10 6 15 6 12 7 21 5 14 6 22 2 16 2 43-1 19 1 23 3 19 4 12 4 25 4 15 5 9v2l5 2 4 4 4 11 6 9 4 9v2l5 2 7 6 5 16 1 8v24h-1l-2-16-5-10v-2h-2v-3l-4-2v-2h-2v-2l-6-1-3-4 1-8-1-8 3-2-6-2-5-10-3-9-3-4v-2l-5-2-5-3v-2h-2l-2-7-2-4v-29l1-3h-2l-5-12-1-4-2-4v-24l-1-33 1-11-1-7v-22l-2-1-1-9-3-3-2-3-2-8-2-7-1-9v-10l-6-5-1-22-9-9-3-9-2-5-3-5v-2l-4-2-5-5-1-3h-2l-3-9-1-4-4-4-1-4-4 1h-15l-3 8-1 6v10l-2 17v13l-2 20-3 9-2 16 1 8 5 2 3 3 10 1 4 3v5l-3 3-9 2-4 1-1 4-1 5-1 7-1 11 1 2-1 15-3 8-6 7 1 4 2 2 3 7 6 7 1 9h2v4h4l1 5h-3l-7-7-1-6-3-3-4-2 2-1-5-6v-5l-4-3-5-1-2-1v-5l4-1v-3l2-2-2-5v-6l-4-8-1-5-1-17 2-14 4-11 1-5 5-26 3-14 1-17 3-24 1-20z" fill="#302E3B"/>
<path transform="translate(692,112)" d="m0 0 4 2 3 3 14 5 12 6 11 2 9 3 19 5 16 3 8 5 7 2 36 2 9 3 4 2v2l27 1 13 4 7 4 6 2 8 1 26 1 17-1 1 5-9 3-8 2-2 4-9 3-23 2-5 2-22 3-8 2-16 1h-12l3-2 5-2 11-1 5-3 3-4h3l1-4h-8l-3-2-1-5-10-1 2 2 6 2h2v5l-5 1-8-4h-7l-4 2-5-2-1-3 7-2-1-4-3-1-1-2-3 1-1 5-4-2v-3l-7-3-1-3v-8l-4 1v3l-11 3h-10v2h-2l-1 4-1-4v-4h-7l-7-2v-5l-6 1v-2l-6-1-4-2-10-2-2-2-11-4-13-4v-2l-5-1v-2h-2l-2-4-4-4-8-4-2-3z" fill="#7B7D7E"/>
<path transform="translate(721,209)" d="m0 0h10l2 1-2 14v12l-3 12-4 5-5 21-5 9-11 1v6l-2 1-1-6 2-12 5-6 5-2 4-6v-6l6-15 2-2v-13l-1-4-4-1h-7l-14 2-24 2-16 3-26 3-52 2-17 3-12 3-37 4-8 1 2 15 4 14 4 13 6 3 6 4 4 7 1 4 2 4v3h2v4h2v2h4l4 6 2 4h2l3 4 3 1 4 6 7 8 8 2 6-1 9-3 4-3 5-2h10l2 1-2 9-5 5h-2l-2 4-5 3v6l1 3 5 2 6 3v2l-13-2-11-5-21-7-5-5v-2l-3-1-8-10-6-7-8-11-5-10-2-9-5-2-5-7-5-5 1-2h-2l-1-14-4-8-4-11-1-19 6-2 24-3 21-4 12-2 57-3 23-2 8-1 6-2 12-2 18-1 20-3z" fill="#32313E"/>
<path transform="translate(885,939)" d="m0 0h2l1 2 6 1v2l3-1v2l3 1 2 2v7l-4 12v8l3 4 5-2 3-4 5-1 3 1v7l-3 7-5 1-4-1h-7v2l-4 3h-2v7l-3 6-4 5h-2v2l-6 1-7-1h-3v2h-3v2h-2v2h-2l2 7 5 1-2 6-3 3h-2v2l-12 7-9 6-8 13-6 10-7 15h-2l-1 7-3 6-2 7v16l1 14-1 7-5 9-4 13-2 5-3 8-2 10h-2l-1 2h-6l-8-15-10-19-8-15-3-9 5 2 2 4-1 2h2l2 7 1 4v2l5 1 4 10 2 10 6-1 1-2h2l1-5h2l3-15h2l1-7 3-10v-2h2l-1-6 1-6v-7l1-6 2-10 4-10 6-12v-2h2l1-8 3-5h2l1-7 5-9 5-11 5-12 3-1v-2h7l10-11 10-4 7-1 2-6h2l1-7 2-8-1-9-1-4 3-7 2-6 1-10z" fill="#4A6E71"/>
<path transform="translate(1056,737)" d="m0 0 3 3v14l-3 18-6 23-2 5-4-2-10-9-3-2v-2l-8-1-6-1h-34l-9 4-6 18-2 7-4 4-2 13-4 11-5 3-1 13-2 16-2 3-5-1-1-10 1-12 2-7 1-7-3-16-3-5v-2l-6-2-1-5v-23h4l1-2 7-4h3v-2l18-5 16-2 9-1h19l7 2 11 2 20 5 4-4h2l4-19v-12l-1-2z" fill="#446267"/>
<path transform="translate(769,421)" d="m0 0 4 1 2 3 2 20 1 13 4 9 6 11 7 4 9 3 11-4h6l5 4-2 5-7 1-1 8-5 7-5 1v2l-10 3-5 4-6-2-5-4-5-5-2-5-2-9-7-3-5-3-4-11-2-10-4-10-1-12 5-9 4-4h2v-2l7-5z" fill="#2F2D3A"/>
<path transform="translate(807,1192)" d="m0 0 16 1 7 3 3 6v2l9 2 2-4 1 3-6 11-1 1-2 15-5 12-3 9-4 13-2 5-4 1-2 4-1 13-4 5-3 1-4 15-5 3h-3l-1 14-4 6-5 5-1 6v35l1 38h5l4-7h2l-2 5-2 4-7 1-3-4-1-34v-23l-1-4 1-6h-2l1-3v-8l-3 3-2 8 1 11v69l2 4-4 1-2-5-1-30v-51l1-10 8-13 3-11 5-4 6-15 6-8 4-12 7-8 2-15v-23l2-5 5-5 1-4v-17l-5 1-5 4-11 1-8-4-5-5z" fill="#65999F"/>
<path transform="translate(852,1059)" d="m0 0h8l4 4 3 10 1 9-5 21-2 11-3 5-3 14-3 12-6 4-7 1-6-2-7-9-5-9-3-10 1-7 8-18 4-8 8-12h2l2-6 3-4h2l2-5z" fill="#629297"/>
<path transform="translate(761,492)" d="m0 0 8 2 3 12 1 2-4-2-1-4v-2l-4-1-1 6 1 7 2 7 5 2v6l5-1 3-3 11 1 5 1 2 2-1 5-2 2h-9l-4-3-2 3-5 1 1 8 5-4 7-1v-2l4 2-4 2-1 6h4l1-2 4 2 1 9 2 1 4-1 2 1v2h2l-1-7-1-10-4-2-2-10 1-9 12-6 6-8 5-3 8-1 4 4 3 12 2 5 3 10v10l-3 12-2 4-7 1-4-3v-2l-8-2-2 4-3 2 10 4 8 2-2 2-15-2-5-2-4-1h-16l-3-5-8-7-7-4-4-4-3-9 1-3v-7l-4-8-4-17 2-5z" fill="#100D12"/>
<path transform="translate(611,376)" d="m0 0h1v5l-8 5-3 5-16 5h-10l-6 1-3 5-2 10h-2l-2 5-3 4h-4l-1 3-16 1h-8l-5 3-22-1-1 4-8 9-5-1-2 3h-2l-2 6-4 8-3 2-6 2-7 6-2 3h-2l-2 7-6 4-5 1-2 4-2 6-1 5-3 1-2 7-2 10 1 3 5 1v1h-7l-5-3-1-8 2-29 3-7 4-2 6-9 7-9 4-6 8-5 4-3h2l1-3 4-3 6-1h7l4-2 4-5 8-2 37-2 5-2 7-8 3-6 11-10 2-1 15-1 16-7 7-3 8-2z" fill="#312F3C"/>
<path transform="translate(452,1339)" d="m0 0 8 1 1 4 3 7 3 5 2 1v2l13 1 5 2 1 5-10 5h-2l-2 6-3 2-5 1-1 3v23l1 4-1 6v11l1 18 3 12-1 4 2 3-1 7v9l-1 6-1 15-3 15-1 13-2 12v14l-3 2-5 1h-12l-1 6 2 7-3 8-5 2v2l-5 2-1 2-4 1-3 3-10 4-4 1v6l-2-2 1-5 6-9 3-2 2-7 9-9 4-5 5-3 4-5 17-1 1-8v-103l-1-95v-6z" fill="#393945"/>
<path transform="translate(407,1603)" d="m0 0 2 1 2 11v5h-2v2l-5 1-1 5-6 3-2 9-10 5-1 2-21 6-12 1-4 2h-8v2l-9 1-2 1-2 4-1 3h-2v3l7 2 22 2 5 2v4l-6 4-10 2h-6v3l-13 1v-2l-3 1-1-2h2v-2l-7 2-11-3v-3h-4l-3 3h-9l-4 8-6 3-2 3h-2l2-4 5-6 6-10 15-11 5-3h13l4-8 10-4 5-5 10-2 8-2 1-4 7-3 9-3 4-8 15-4 9-7 6-4z" fill="#312F3C"/>
<path transform="translate(945,1225)" d="m0 0 11 1 3 3 2 10 8 9 8 10 6 15 6 12 7 21 5 14 6 22 2 16 2 43-1 19 1 23 3 19 4 12 4 25 4 15 5 9v2l5 2 4 4 4 11 6 9 4 9v2l5 2 7 6 5 16 1 8v24h-1l-2-16-5-10v-2h-2v-3l-4-2v-2h-2v-2l-6-1-3-4 1-8-1-8 3-2-6-2-5-10-3-9-3-4v-2l-5-2-5-3v-2h-2l-2-7-2-4v-29l1-3h-2l-5-12-1-4-2-4v-24l-1-33 1-11-1-7v-22l-2-1-1-9-3-3-2-3-2-8-2-7-1-9v-10l-6-5-1-22-9-9-3-9-2-5-3-5v-2l-4-2-5-5-1-3h-2l-3-9-1-4-4-4-1-4-4 1z" fill="#373742"/>
<path transform="translate(654,332)" d="m0 0 1 3 5-1-1 9-3 3-5 3 2 10-5 8-2 5h-5l-4 8-5-1-3-1-8 5-5-1 1 4 4 2v5h4l1-5 1-1h8l-9 9-10 5-4 4-2 10-1 1v5l3 1h6l2 1v3l-4 2-11-2-5-2h-9v-2l-11 8-9 1 5 2-3 1-1 2v-2l-5-1-1-1v-5l6-11v-3l2-3-1-8h6l1-2 4-2 5-1 11-2 3-3h2v-2l6-5v-3l4-1v-5l2 1 4-3h7l-1-6 7-1 3-7 2-6h3l6-10h-5l6-7z" fill="#100D12"/>
<path transform="translate(995,940)" d="m0 0h4l2 4v8l-5 21-5 15-2 15v9l-2 13-6 18-7 13-8 11-7 7-5 1-2-1-1-3v-9l3-9h2l1-4 4-6 2-13 2-3 2-6 4-6 1-13 3-5 3 1 2-5 2-7v-10l4-8 3-1-1-5 3-5 2-14z" fill="#537D80"/>
<path transform="translate(479,867)" d="m0 0 4 5 2 3-1 4h-3l-2 40-1 7-5 7-2 9-1 9v12l2 3 1 15v6l-4 11-2 5 1 4 2 2 2 5-6 13-3 1v2l-3 1-2 3h-2v2h-2v21l-1 5 1 2-2 10-2 5-1 5h-2l-1 7-4 4-1 5v29l1 6-1 3 1 3v12l-3 12-2 7-3 3v8l5 1h6l3 2v14l-3 5h-3l-1 3-2-1 4-6 2-8v-7l-6 1-5 6-5 1-2-2v-9l3-21 6-27 1-7 2-37 1-12 6-9 1-2 1-29 4-17 4-16 3-15 6-8 2-6v-10l-1-10 2-9 1-14 6-16 3-16 1-32z" fill="#656667"/>
<path transform="translate(868,1285)" d="m0 0h1l-1 9-2 7-5 12-2 13v4l5-2 1-6h2l1-6 3-6 2-7 3-5 4-10h2l1-2 3 1 1 20-1 19-2 7-1 7-4 10-1 6-2 6v3l1 4 2 6 1 11 6 3 5 15-3 2-11-17-3-6v-3l-4-1-4-11-3-16-4-1-9 3-2-1-1-3v-9l4-10 3-3 5-17 7-19z" fill="#51797C"/>
<path transform="translate(884,937)" d="m0 0 2 2 1 10-1 8-5 15 1 5 1 8-4 13-2 1-2 5-5 2-10 3-5 4-7 8-7-1v2l-4 3v-9l2-6 5-2 1-3 7-1v-2h2l2-5v-6l-4-1-3-5 3-9 4-9 4-5 7-6 5-6h3v-2h2v-2l4-3z" fill="#3E4F57"/>
<path transform="translate(542,826)" d="m0 0 10 2 13 3 25 3 16 4 10 3h12l19 2 5 3 3 3 11 4 15 3 3 1 1 4h-14l-16-1-7-3-2-2-11-2-9-1-24-2-12-3h-27l-10-6-4-5-7-2h-5l-4 1v2l-7 5h-10l1-6h2v-2l19-7z" fill="#1E1D23"/>
<path transform="translate(885,939)" d="m0 0h2l3 5 3 2v2l3 1-1 2-1 8-3 5-1 12v12h-3v2l2 1h-2l-3 9-2 4-6 4-11 1-4 2-1 4-3 3-3 12-5 5-5 1v2h-3l-1 3h-2l-1 4-3 3-7 12-5 11h-2l-1 5-5 11-4 11-3 7-1 9v21l-2 9-5 13-4 14-3 1 1 3-3 7-1 2-4-2-2-4-4-1 8-4 1-5h2l3-15h2l1-7 3-10v-2h2l-1-6 1-6v-7l1-6 2-10 4-10 6-12v-2h2l1-8 3-5h2l1-7 5-9 5-11 5-12 3-1v-2h7l10-11 10-4 7-1 2-6h2l1-7 2-8-1-9-1-4 3-7 2-6 1-10z" fill="#446266"/>
<path transform="translate(922,1214)" d="m0 0 5 1 4 8 14 1v1h-17l-3-3-4-1-3 12-1 20-3 27-1 14-5 26-3 15-1 4-4 11-2 14 1 19 4 10 2 10 1 3-3 1v3l-3 1-2 4-1-8 1-2h-2l-2-5-2-1-3-13-2-1 1-2h-2v-5-3l1-2-2-1 2-8 1-9 3-8 4-10 5-25 2-6 2-4 1-12 1-4 1-10 1-14 1-2v-7l1-8 2-13 5-13z" fill="#3E5058"/>
<path transform="translate(920,1212)" d="m0 0 4 1-5 5-5 12-2 6-1 13-1 5v6l-1 2-1 17-1 10-1 3-2 13-2 2-2 13-3 12-3 11-4 8-2 9-1 9v4l-1 4 1 2-1 4h2l2 5 3 11 3 4v2h2l1 10 3 2h5l4 4v5l1 3 3 1-1 3 4 2v2l3 1v5l-6-5v-2l-3-1-2-3v-3l-4-2-7-7-10-13 1-3-5-15-5-2-1-1-1-12 3-18 6-15 4-17 2-10 1-13 1-7 1-13 1-5 2-15 2-7 3-7 2-9 4-14h2v-8l1-3zm-15 209m2 4 1 2z" fill="#436267"/>
<path transform="translate(935,1458)" d="m0 0h5l1 7 7 1 3 2 1 5 2 1 1 8 3 9v4l3 1 2 8v20l2 7 6 3 2 4 1 38-2 8-3 1h-7l1 31 1 17 1 3 5 2 3 7v21l-1 7-4 3-3 1-1 3v7l-1 6v15l-2 1-1 15h-1l-1-6v-16l1-7 2-36-1-43v-29l4-10 1-3v-7l-1-3v-15l-4-22-2-20h-2l-3-7-5-20-9-16-2-4z" fill="#33323F"/>
<path transform="translate(944,1083)" d="m0 0h4l1 2v18l5 4v2l3 1v2h-2l1 8 5 6 1 3 3 2 2 5 2 1 4 32v3l-4-2-8-7-2-2-1-4-7-6-5-6-3-2-4-8v-2l-4-1-3-2-1-3v-10l2-8 4-4 4-3 1-15z" fill="#51797C"/>
<path transform="translate(449,1185)" d="m0 0 2 2 1 8v9h2v2h3v13l-3 8-7 1-2 7-4 4-6 1-3-2-3 6-3 2v6h-2l3 14v8l3 8 3 18 2 3 3 1-1 2 1 1v4l2 9-1 6-2-3-3-10-4-2-3-7-3-14-6-19-1-7v-26l8-13 3-7 7-5 3-5 3-1 1-2 4-2 1-3 1-14z" fill="#33323E"/>
<path transform="translate(614,256)" d="m0 0h18l8 2 1 1-1 8-4 4-5 1-1 4-3 5-1 3-4 3-1 3-2 1-3 6-4 1v-2l-6 1-8-1-6-4-3-5 1-9 5-8 6-5 5-3 4-5z" fill="#302E3B"/>
<path transform="translate(434,519)" d="m0 0h4l1 6v12l3 8 6 3 4 5 11 4v2h2l3 19-2 28-1 10-2 18-1 44v16l-4 4-6 3-5 6-9-2-2-5-5 3h-2l-1 4-7 1 2-4h2v-2l3-3 1-2 18-1 7-3 1-12v-13l2-55 1-50 1-4-9-3-12-11-2-6v-18z" fill="#343340"/>
<path transform="translate(779,1338)" d="m0 0h2l1 10v1 7l1 4v26l1 30 2 3h7l4-10 5-3 2-5 2-2 7-2 2-7 9-3 1-5 3-3 5-2 3-1v-5h2l-1-6 2-3h5l-1 9-4 6-14 15-9 8-7 8-18 18-10 6-4-1-1-2v-74l-1-7 3-9z" fill="#7B7B7C"/>
<path transform="translate(748,1083)" d="m0 0 6 1 8 6 14 14v2h2l5 6 3 8-5 3-7 1-6 3h-2v2l-7 1h-3v-8l-6-8-6-1 1-5v-18z" fill="#1E1D23"/>
<path transform="translate(992,1686)" d="m0 0 8 1v5l9 1h13l19-1 11-2 6 2 4 1 2 3-1 6-10 4-4 4h-6v-2l-4-1-14-5h-6-3l-6 2-10 2-4 1-6-1-8-1-4-4 1-6 4-3 7-3z" fill="#302F3C"/>
<path transform="translate(992,778)" d="m0 0h16l12 2 10 2 8 5 5 4 4-1 4-2-2 9-1 3-4-2-10-9-3-2v-2l-8-1-6-1h-34l-9 4-6 18-2 7-4 4-2 13-4 11-5 3-1 13-2 16-2 3-5-1-1-10 1-12 2-7 1-7-3-16-3-5v-2l-6-2 1-4 5-2h4l7-1v-2l6-1v2h2l-1 4-7 7-2 10 1 2-1 7h5 2l2-1 2-7v-12l3-7 5-5 1-3v-11l4-5 11-4z" fill="#51797C"/>
<path transform="translate(528,1593)" d="m0 0 17 2 2 2 3 30v23l-2 12-2 18-5 12-6 9-6 2h-58l-2-1-1-7 2-1 2 5h5l4 2 47-1-1-3 2-5h2v-5l3-5h2l1-4 5-8 4-10v-14l-2-12v-7l-5-15-3-6-8-3z" fill="#33323E"/>
<path transform="translate(427,881)" d="m0 0 3 1-10 13-8 12-8 10-8 7 1 4 7 6-2 10-6 5-7 11-3 7v11l5 10 8 10 6 5 4 5 8 8 13 1 6 3-1 7-7 11-5 8-10 9-11 9v-3l3-5h2v-4l10-7 5-5 2-9 5-6 1-4-15-1-6-3-5-4-4-6v-6l-6-1v-2h-2l-2-8-6-5-1-3v-10l-1-9 4-11 2-1 2-5 4-2h4v-8l1-3h-3v-2h-3l-1-2v-6l4-5 6-3 3-6 2-2 2-4 6-10 3-1v-2l4-4 2-4z" fill="#393944"/>
<path transform="translate(843,483)" d="m0 0h19l7 5v2l5 1 8 6v2l6 2 2 2 7 2 3 1h6l-3 4h-7l-10-3 5 7v2l8-1 5-3 7-2 9-3 5-2-1-2-3-1v-1h7l1 4-5 4-10 3-4 3h-2l-1 3-15 2-5-5-2-5-5-2-1-3h-2v-2l-12-6-9 1-9 6-2 6v7l3 12-2-1-2-5-2-6-1-18h-7l5-6z" fill="#100D12"/>
<path transform="translate(945,1225)" d="m0 0 11 1 3 3 2 10 8 9 8 10 6 15 6 12 7 21 5 14 6 22 2 16v7l-4-2-1-9-3-3-2-3-2-8-2-7-1-9v-10l-6-5-1-22-9-9-3-9-2-5-3-5v-2l-4-2-5-5-1-3h-2l-3-9-1-4-4-4-1-4-4 1z" fill="#343340"/>
<path transform="translate(513,132)" d="m0 0h6l5 1 15 1 15 2 9 1v2l28 1 1 3-6 1h-9l-6 1-24 2-8 1h-29l-9-1 1-4 3-6 3-3z" fill="#454855"/>
<path transform="translate(562,394)" d="m0 0h2l-1 3-10 10-4 10-3 4-7 2-34 1-7 2-5 1v4l-15 3v2l-6-1-1 7-1 2h-2l-1 4-7 1-9 6-4 6h-2v3h-2l-1 7-3 4-4 7v3h-2l1 5-5 10-1 13v3h2l-1 2-3-2-1-8 2-29 3-7 4-2 6-9 7-9 4-6 8-5 4-3h2l1-3 4-3 6-1h7l4-2 4-5 8-2 37-2 5-2 7-8 3-6z" fill="#656566"/>
<path transform="translate(989,600)" d="m0 0 3 4 7 12 5 15 6 10v2l5 2 4-1 6-8 6-1h8l5 5 3 23 3 6v6h-1l-1-5-7-2-2-2-2-12-8-5h-17l-5-1v-2l-4-2-5-5-3-9v-12l-4-1-2-6-1-6z" fill="#33323F"/>
<path transform="translate(975,997)" d="m0 0 7 1 3-1 1 12 1 4-2 6-5 3-3 9v8l-3 6h-2v3h-2v2h-2v2l-3 3-1 8-3 4-1 4-5-1-2-4v-7l3-1v-2l6-4 1-8 1-3v-13l4-9 3-4 1-13z" fill="#496D70"/>
<path transform="translate(1056,737)" d="m0 0 3 3v14l-3 18-2 1-4 9-2 2-7-1-6-2-4-2-12-3-15-2-5-1-13 1-11 3-15 3-1 2-10 5-5 1-3 5h-8l-2-8h4l1-2 7-4h3v-2l18-5 16-2 9-1h19l7 2 11 2 20 5 4-4h2l4-19v-12l-1-2z" fill="#3F5058"/>
<path transform="translate(691,324)" d="m0 0 7 1 6 6v2l4 2 2 3 3 12 1 2 5-1 13-5 5-2 13 2 6 4 12 3 12 1 6 3 4 1 4-3 4-1h7l-4 2-7 2v3h-2l-1 3-7-1-4-3-12-1-6 2h-8l-10-3-2-2h-9v2l-9-1-3-1-8-1-3-4-1-6-3-1-1-4-3-1-2-4-3-2v-5l-6-2z" fill="#32303D"/>
<path transform="translate(502,1574)" d="m0 0 5 2 5 8 3 4 1 4v7l-5 5-5 1v3l-6 2-4-5-8-3-3-4v-9l5-5 5-2 3-6z" fill="#302E3B"/>
<path transform="translate(746,647)" d="m0 0 6 2 2 4-10 2-3 1 1 3h-2v3h-2v2l-10 5h-3v2h-2l4 4v2l9-1 4 1v21h-2l-4-5v-9h-5v-2l-5 1-13 2-7 1-2-4 2-4 6-4 8-7 4-1 1-4 3-3h3l1-2 3 2-1-8 3-3h9z" fill="#100D12"/>
<path transform="translate(928,955)" d="m0 0 1 4-4 11-4 10-2 9-4 10-3 12-4 13-4 6-3 2-7 22-6 16-5 17-6 17-9 28-11 34-8 25-3 11h-2l2-10 6-19 3-10 2-10 3-7 3-8 5-17 3-7 6-21 6-17 5-19 3-5 4-13 2-10 2-3h3l2-6 4-6 3-16 4-10 3-8 3-19 5-1z" fill="#629297"/>
<path transform="translate(616,1255)" d="m0 0 4 3 2 6 1 14 8 4 5 8 4 4 3 6v8l-4-4-8-15-5-5-3-2 1 10 5 25-3 3-4-4-4-9-3-5h3l1-8v-10l-10-8-2-6 1-7 4-6z" fill="#666769"/>
<path transform="translate(461,707)" d="m0 0 8 1 1 2-1 3-4 2h-3-3v6l-2 4v11l-1 4 3 4 6-1 3-1v-3h3l1-3h8l2 6-7 8-6 2-11 2-4-1-4-8-1-6-1-5v-9-4l2-5 4-1 3-7z" fill="#474955"/>
<path transform="translate(439,1091)" d="m0 0h1l1 9v29l1 6-1 3 1 3v12l-3 12-2 7-3 3v8l5 1h6l3 2v14l-3 5h-3l-1 3-2-1 4-6 2-8v-7l-6 1-5 6-5 1-2-2v-9l3-21 6-27 1-7z" fill="#67686A"/>
<path transform="translate(457,1547)" d="m0 0h1v11l-5 1h-12l-1 6 2 7-3 8-5 2v2l-5 2-1 2-4 1-3 3-10 4-4 1v6l-2-2 1-5 6-9 3-2 2-7 9-9 4-5 5-3 4-5 17-1z" fill="#353541"/>
<path transform="translate(850,537)" d="m0 0 6 3 4 6 6 2 1 4 2 1v3l2 2-1 2 4 1v2l3 1 3 6v6l5 1 3 4-1 4 3-1-1 9 2 1-1 3-8-10-6-11-3-8-4-4-4-12-8-5-8-4-4 10-2 11-10 15-11 16-7 10-8 12-5 4v-3h2l-1-5h3l-1-3 3-5 4 1-1-5 3-4h3l1-3h2l-1-3 5-10h2v-2l5-2 2-5 4-6 3-3 2-5 3-16z" fill="#373642"/>
<path transform="translate(953,647)" d="m0 0 6 2 2 9-1 5-4 1h-2l-6 2-6-1v19l-1 6-1 7-2 1v2l-5 1 1 7h-2l-3 9-5 7h-2v59h-2l-1-5v-59l3-3 5-2 3-14 7-6 1-3 1-19-4-5h3v-2l2-1 1-3h3l1-5 3-1 1-7z" fill="#646364"/>
<path transform="translate(1026,833)" d="m0 0h3v9l-8 46-3 12-8 18-3 8h-4l-1-6v-8l4-3 1-5h3v-12l4-10 1-2h2l2-7 1-8 2-15 1-14z" fill="#639499"/>
<path transform="translate(913,173)" d="m0 0h6v2l10 2v7l-3 1-39 2-5-1v-2l-6-1-5-2-1-3h2v-2l2-1h15l9 1 5-2 7 1z" fill="#656364"/>
<path transform="translate(611,376)" d="m0 0h1v5l-8 5-3 5-16 5h-10l-6 1-3 5-2 10h-2l-2 5-3 4h-4l-1 3-16 1-9-1v-1l14-1 5-1 2-4 5-11 8-9 2-1 1-3 15-1 16-7 7-3 8-2z" fill="#33313E"/>
<path transform="translate(935,1458)" d="m0 0h5l1 7 7 1 3 2 1 5 2 1 1 8 3 9v4l3 1 2 8v20l2 7 6 3 2 4 1 38-2 8-3 1h-6l1-2 5-1 1-4v-42h-7l-2-3-3-26h-2l-3-7-5-20-9-16-2-4z" fill="#353441"/>
<path transform="translate(956,793)" d="m0 0 5 1-1 4v6l7-3-2 5-4 3-2 7v11l-5 10-7-2v-7l-1-2 2-10 5-5h2l2-6h-2v-2l-6 1v2l-10 3h-4-3l-1-1v-10h1v5l6-1h2l5-5z" fill="#4A6E71"/>
<path transform="translate(839,1362)" d="m0 0h5l-1 9-4 6-14 15-9 8-7 8-18 18-7 4-4-1-1-1v-8l5-1v2l10-1v-5l3-6 5-3 2-5 2-2 7-2 2-7 9-3 1-5 3-3 5-2 3-1v-5h2l-1-6z" fill="#53777C"/>
<path transform="translate(1051,1556)" d="m0 0 3 4v2l5 2 7 6 5 16 1 8v24h-1l-2-16-5-10v-2h-2v-3l-4-2v-2h-2v-2l-6-1-3-4 1-8-1-8z" fill="#353541"/>
<path transform="translate(534,263)" d="m0 0 16 2 8 3 2 7-9 5-12 2h-12l-2-4v-11l1-2z" fill="#302E3B"/>
<path transform="translate(885,939)" d="m0 0h2l3 5 3 2v2l3 1-1 2-1 8-3 5-1 12v12h-3v2l2 1h-2l-3 9-2 4-6 4-10 1v-3l9-2 2-6h2l1-7 2-8-1-9-1-4 3-7 2-6 1-10z" fill="#436267"/>
<path transform="translate(773,367)" d="m0 0 4 1 3 7-4 4-4 3-2 4-4-2v7l-3 1v2h-3l-1 3 7 1 1 3h2l1-8 3 6-1 10-7 3-16 2-1-6 7-11 1-3h2l2-5 5-9 6-11z" fill="#100D12"/>
<path transform="translate(812,1087)" d="m0 0 1 3-6 15-1 9v21l-2 9-5 13-4 14-3 1 1 3-3 7-1 2-4-2-2-4-4-1 8-4 1-5h2l3-15h2l1-7 3-10v-2h2l-1-6 1-6v-7l1-6 2-10 3-8z" fill="#436267"/>
<path transform="translate(1e3 920)" d="m0 0 2 3-1 3h4l-4 17-2 4-2-6-2 1v-2l-3 3-2 14-3 6 1 2-4 4-3 8v9l-2 7-3 5h-3l-2 4-1 13-5 7-4 12-1 9-4 6-2 4h-2l-3 11h-1v-8l4-9 4-3 3-15 3-8 4-6 2-12 6-14 4-9 1-8 1-4 3-1v-5l4-6 2-14 3-4h4l1-8 2-9z" fill="#629297"/>
<path transform="translate(547,1658)" d="m0 0 1 4-2 18-5 12-6 9-6 2h-58l-2-1-1-7 2-1 2 5h5l4 2 47-1-1-3 2-5h2v-5l3-5h2l1-4 5-8z" fill="#353440"/>
<path transform="translate(950,1064)" d="m0 0h1l1 10 4 2-3 2v13l5 17 4 12 5 8 1 9-3-2-1-4-3-2-4-7-2-4v-6h2l-3-3v-2l-3-1-2-2-1-3v-18l-4 1-1 3-1 15-5 4-3 3-1 2h-2l1-6 5-6 3-16 3-7 3-1 1-4z" fill="#64989D"/>
<path transform="translate(725,863)" d="m0 0h45l10 1h10l31 2h7v3l-5 1h-43l-42-2-13-2z" fill="#1E1D23"/>
<path transform="translate(983,782)" d="m0 0h34l14 3 5 5 8 7 3 4-4 2-5-5-7-5v-2l-4-2-4-3-4-1h-35l-4 2-7 10-2 9-5 10-6 22-6 10-3 9-2-2 1-12 4-3h2l1-5 5-20 4-5 6-22 5-4z" fill="#629297"/>
<path transform="translate(889,1034)" d="m0 0 5 1-1 7-5 12-4 16-5 14-2 5-2 10-3 8-2 7-3 7-3 12-4 1v-7l1-1 2-9 3-9h2v-7l4-11 5-12v-7l2-2 4-13 2-12z" fill="#4A6E71"/>
<path transform="translate(479,867)" d="m0 0 4 5 2 3-1 4h-3l-2 40-1 7-5 7-2 9-1 9v31l-4 9h-4l1 3-3 8-1 13-5 13-3 5-1-4 5-17 4-21 6-8 2-6v-10l-1-10 2-9 1-14 6-16 3-16 1-32z" fill="#748B8E"/>
<path transform="translate(992,778)" d="m0 0h16l12 2 10 2 8 5 5 4 4-1 4-2-2 9-1 3-4-2-10-9-3-2v-2l-8-1-6-1h-34l-9 4-6 18-2 7-4 4-2 11h-1l-1-12 3-7 5-5 1-3v-11l4-5 11-4z" fill="#51797C"/>
<path transform="translate(888,1225)" d="m0 0 1 4-3 12-2 4-1 6-4 6-5 16-4 9-7 21-5 14-3 11-2 3h-2l-3 10v12l3 1-5 6-2 3h-5l-1 6v2h-2v5h-2v-9l4-9 5-3 3-20 4-7 4-9 5-16 3-4 2-8 7-19 4-11 8-21z" fill="#629297"/>
<path transform="translate(850,157)" d="m0 0 21 1 13 4 7 4 6 2 8 1 26 1 17-1 1 5-9 3-8 2-2 4h-1v-6l-10-2-2-3h-21l-5-2-9-2-9-6-12-2-13-1z" fill="#777F81"/>
<path transform="translate(930,786)" d="m0 0h1l1 27 4 1 4 4 3 7 2 15-2 11-1 5-1 8-2 1-1-9-1-1-7-43z" fill="#629398"/>
<path transform="translate(844,364)" d="m0 0 9 1 7 2 4 4 9 3 2 2v5l-3 5-5-2-8-1-5-5v-4h-8l-9-3-1-4 3-2z" fill="#454855"/>
<path transform="translate(800,1109)" d="m0 0h2l1 4-1 2v8l-1 11h-2l1 3-4 11-1 5h-2l-2 13-1 2h-2l-1 5h-2l-1 3h-6l-1-3 3-1v-2h2l1-10 6-12 3-7 3-11 2-16z" fill="#3E4F57"/>
<path transform="translate(858,912)" d="m0 0h7l3 6 4 2v2l6 2 2 2 1 9v2l-7 3h-6l-3-3-1-7h-2l-4-8-1-9z" fill="#1E1D23"/>
<path transform="translate(945,1225)" d="m0 0 11 1 3 3 2 10 8 9 8 10 6 15 6 12-1 2-6-5-4-4-3-9-2-5-3-5v-2l-4-2-5-5-1-3h-2l-3-9-1-4-4-4-1-4-4 1z" fill="#393A46"/>
<path transform="translate(995,940)" d="m0 0h4l2 4v8l-5 21-3 8-3 1-3 6-3-1v-9l-2-2 4-8 3-1-1-5 3-5 2-14z" fill="#527B7E"/>
<path transform="translate(665,707)" d="m0 0 3 1 1 2v41l-5-1-2-7-2-1v-2h-2l-2-18 2-4h2l3-9z" fill="#100D12"/>
<path transform="translate(871,347)" d="m0 0 4 1 2 7 5 2-1 4-10 1h-11l-15-3v-7l6-3 9-1z" fill="#1E1D23"/>
<path transform="translate(830,1222)" d="m0 0h2v2l2 1-2 9-7 11-1 5v10l-3 4-4 1-2-5 1-17 1-10 3-1 4-6 4-1v-2z" fill="#54797C"/>
<path transform="translate(962,1535)" d="m0 0 8 1 1 8v34l-2 5-6 2-1 31h-2v-29l4-10 1-3v-7l-1-3v-15l-2-10z" fill="#616C71"/>
<path transform="translate(854,1155)" d="m0 0 1 4-1 11-1 3h-2l-2 5-4 1-8-3-3 1-4-4 1-6 5-2 4-3 8-3 4-1v-2z" fill="#496D70"/>
<path transform="translate(665,355)" d="m0 0 1 3-2 6-3 5-3 13-9 18-4 1-3-5-4-5 11-13 3-1 2-5 7-9 2-7z" fill="#100E13"/>
<path transform="translate(948,456)" d="m0 0 2 1v21l2 13v5l-3 3v10l3 8 6 4 1 1 1 11 3 7 5 8 1 5h-2l-2-5-5-1-3-10-5-8v-5l-3-3-2-9-3-5 2-10 2-16z" fill="#383844"/>
<path transform="translate(934,891)" d="m0 0 4 1 1 1v26l-3 7-3 1-3-9-2-11-1-9h-3v-2h2l1-3z" fill="#4D7376"/>
<path transform="translate(625,257)" d="m0 0 6 2 1 3-5 5-6 3h-2v2l-9 3h-7l-2-2 1-5 6-3h2l1-5 3-2z" fill="#3E5058"/>
<path transform="translate(695,1243)" d="m0 0 7 1 3 3 1 4 5 1 5 7-1 2-8-8-11-7v2l4 2 1 18v97h-1l-1-94-6-12-2-7 1-7z" fill="#68696B"/>
<path transform="translate(434,519)" d="m0 0h4l1 6v12l3 8 6 3 4 5 8 4 2 15v13l-2 25-1 18-1 5h-1v-20l1-50 1-4-9-3-12-11-2-6v-18z" fill="#677274"/>
<path transform="translate(410,1009)" d="m0 0 7 7 13 1 6 3-1 7-7 11-5 8-10 9-11 9v-3l3-5h2v-4l10-7 5-5 2-9 5-6 1-4-4-1-9-1-6-5z" fill="#3B3C47"/>
<path transform="translate(366,248)" d="m0 0h6l-2 3-16 2-53 2h-25v-3l28-1 19-1 9-1h22z" fill="#77999D"/>
<path transform="translate(674,313)" d="m0 0 4 1v9l-5 7-6 10v10l-6 8-1-4-1-6 3-4 4-13-3-1 1-3-4 1 6-8 3 1-1-3z" fill="#100D12"/>
<path transform="translate(1017,1586)" d="m0 0h10l4 2 8 2 11 4-4 1-10-2-8-2h-15l-14 7-1 3 11 1v1l-14 1-9 2v-6l4-4 6-4 10-4z" fill="#100D12"/>
<path transform="translate(780,650)" d="m0 0 1 2-7 14-11-1-20-7 4-2 14-1h4l1-2 13-2z" fill="#383844"/>
<path transform="translate(939,677)" d="m0 0h1l1 18-3 3v2l-5 1 1 7h-2l-3 9-5 7h-2v59h-2l-1-5v-59l3-3 5-2 3-14 7-6 1-3z" fill="#6A797B"/>
<path transform="translate(989,600)" d="m0 0 3 4 7 12 2 11 1 7 5 5 3 5 4 2 6 1-1 2h-7l-5-1v-2l-4-2-5-5-3-9v-12l-4-1-2-6-1-6z" fill="#31303D"/>
<path transform="translate(760,435)" d="m0 0h3v2l3 1v2l4 2 2 4v11l-2 3h-7l-5-6-1-10z" fill="#454855"/>
<path transform="translate(493,1652)" d="m0 0 4 4-2 5-6 3-4-1-2 5-4 4-11-1-1 2-4-7 9-5 6-1 6-2 5-3h2v-2z" fill="#100E13"/>
<path transform="translate(509,137)" d="m0 0h13l4 1 9 1h12l4 1v2h-2l-1 3h-22l-5 1-15-1-1-5h4z" fill="#302E3B"/>
<path transform="translate(524,667)" d="m0 0 3 1 3 11v29h2l2 9 3 1v4l-2 1h-14l-7-1-7-6 1-4 3 3h18l-1-30-3-15-2-1-1 5-3 3 1-5 2-4z" fill="#666566"/>
<path transform="translate(512,292)" d="m0 0 7 2 3 4v3l4 1 5 5 1 8 4 7 5 5 5 8 14 14 2 7-1 3-3-4v-2l-3-1-8-10-6-7-8-11-5-10-2-9-5-2-5-7z" fill="#697274"/>
<path transform="translate(646,1311)" d="m0 0h5l3 5v3l5 1 3 5 2 1v2l4 2 2 6 4 2-1 1 3 2 1 3 4 2 4 9 1 4-7-6-8-7-10-14-7-11-6-8z" fill="#5C5C60"/>
<path transform="translate(372,825)" d="m0 0 1 2-6 10-2 10-1 17-3 8-5 12-1 5v7l-1 5-5 1-1 2-3 2-3 9h-2l-2 5-3 7-1 4-1 16h-1v-17l3-11 6-10 4-8 7-2v-12l5-15 4-8 1-4 1-17 2-9z" fill="#69787C"/>
<path transform="translate(952,668)" d="m0 0 7 1 1 7-4 10h-2l-1 4-5 2v2l-4-1 2-9 3-2-2-5h-2l-1-5 2-3z" fill="#1E1D23"/>
<path transform="translate(475,565)" d="m0 0 6 3 5 8 2 1 2 7 5 5v7l-4 1-5-7-1-5-5-2-4-5-3-6-1-6z" fill="#100D12"/>
<path transform="translate(560,803)" d="m0 0 8 2 1 3-7 3-16 2h-14l-1-3 3-3 14-3z" fill="#1E1D23"/>
<path transform="translate(705,712)" d="m0 0 4 1 4 4 1 5h2l-1 4-3 1v3l6-1 1 5-2 1-6-1-4 2v-6l-5-5-6-3 2-3 4-2z" fill="#100D12"/>
<path transform="translate(808,1400)" d="m0 0h7l-2 4-22 22-7 4-4-1-1-1v-8l5-1v2l10-1v-5l3-5 5-2 3-2 2-5z" fill="#636467"/>
<path transform="translate(860,548)" d="m0 0 6 1 1 3 2 1v3l2 2-1 2 4 1v2l3 1 3 6v6l5 1 3 4-1 4 3-1-1 9 2 1-1 3-8-10-6-11-3-8-4-4-4-12z" fill="#424852"/>
<path transform="translate(613,1262)" d="m0 0 5 1 2 4 2 10 9 5 5 8 4 4 3 6v8l-4-4-8-15-5-5-4-3-2-3-1-4-6-1-3-5 2-5z" fill="#666A6C"/>
<path transform="translate(902,1196)" d="m0 0h7l5 3-3 15-1 1-8-1-2-1-1-10 2-6z" fill="#436267"/>
<path transform="translate(969,553)" d="m0 0 2 3 4 10 4 7 4 13 6 12-1 2-9-5v-4l-2-1-2-8v-9l-1-3-2-1v-2h-4l-1-2v-9z" fill="#3D3F4A"/>
<path transform="translate(1e3 920)" d="m0 0 2 3-1 3h4l-4 17-2 4-2-6-2 1v-2l-3 3-2 14-3 6 1 2-4 4-3 7h-2l1-8 3-1v-5l4-6 2-14 3-4h4l1-8 2-9z" fill="#639499"/>
<path transform="translate(562,394)" d="m0 0h2l-1 3-10 10-4 10-3 4-7 2-34 1-14 4-3 3-2-1 5-6 8-2 37-2 5-2 7-8 3-6z" fill="#677173"/>
<path transform="translate(319,227)" d="m0 0h4v2l-9 2h-5v2l-8 4h-3v2l-4 1h-9v2h-2l-1 5h-18l-3 1v5l1 2h-3l-1-7 5-3 14-4 11-4 13-4 6-4z" fill="#77ACB3"/>
<path transform="translate(416,710)" d="m0 0h3l-1 6h-2l-1 5-3 3-1 3h-2v7l-4 6h-2v2l-4 4-2 9-1 9-2 8-3 3v2h-2l1 4-3 7-1-4 5-17 6-22 3-6h2l6-15 6-9z" fill="#6B7A7D"/>
<path transform="translate(844,1181)" d="m0 0 3 1-2 8-1 9-3 5-5-1-3-7v-11l4-2h7z" fill="#4A6E71"/>
<path transform="translate(525,1542)" d="m0 0h1v39l-6 1-1-1v-12l1-8 1-9 2-6z" fill="#100D12"/>
<path transform="translate(691,324)" d="m0 0 7 1 6 6v2l4 2 2 3 3 12 1 2 5-1 13-5 5-2 5 1v1l-7 1-6 5h-3v2l-13 1-3-4-1-6-3-1-1-4-3-1-2-4-3-2v-5l-6-2z" fill="#3B3B46"/>
<path transform="translate(513,120)" d="m0 0 4 1-6 5-4 4-5 4-1 3-2 1-3 5-3 4-9 2-8 6-7 4-7 2-4 1-1 5-5 1 3-2 1-6 7-3 7-1 4-2v-2l6-4 8-3 9-8 3-7 4-3 5-1 1-4z" fill="#789194"/>
<path transform="translate(903,1194)" d="m0 0h7l6 3-1 3v-2l-13-1-2 7v16l-9 7-3 13-1 10-4 3-2-1 2-4 1-5 2-4 3-14 3-4 5-15 1-8z" fill="#51797C"/>
<path transform="translate(425,1596)" d="m0 0h6l12 5 9 7 2 3h-6l-2-4-20-4-10 3h-3l-2-2v-6l3 1v3l5-1 9-3z" fill="#100D12"/>
<path transform="translate(721,209)" d="m0 0h10l2 1-1 6-3-3-10-1-13 3-39 4-14 3-15 2h-17v-1l30-3 6-2 12-2 18-1 20-3z" fill="#454855"/>
<path transform="translate(850,157)" d="m0 0 21 1 13 4 7 4 6 2 8 1 24 1v1l-23 1h-10l-5-2-9-2-9-6-12-2-13-1z" fill="#6AA3A9"/>
<path transform="translate(983,977)" d="m0 0 2 1v9l2 1 2-6 3-2-1 8-2 15v9h-3l-1-9v-6l-4 2-3-1 2-5 2-7z" fill="#568387"/>
<path transform="translate(427,881)" d="m0 0 3 1-10 13-8 12-8 10-8 7-1-2 3-5 4-2 3-6 2-2 2-4 6-10 3-1v-2l4-4 2-4z" fill="#3B3B46"/>
<path transform="translate(479,867)" d="m0 0 4 5 2 3-1 4h-3l-2 40-1 7-5 7-2 9-1 9h-2l1-17 6-16 3-16 1-32z" fill="#687376"/>
<path transform="translate(756,1134)" d="m0 0 5 2 2 4-1 2h2l2 7 1 4v2l5 1 4 10 2 8 2 3 3 1 2 3-1 7-3-4-9-16-11-22-4-7z" fill="#61777A"/>
<path transform="translate(961,1524)" d="m0 0h2l2 7 6 3 2 4 1 38-2 8-3 1h-6l1-2 5-1 1-4v-42h-7l-2-3z" fill="#363643"/>
<path transform="translate(434,175)" d="m0 0m-2 1h2l-1 3-6 3-3 1-2 5-6 3-13 2-6 3h-3v2h-5l4-3h2l2-4 5-2 12-2h2l1-5z" fill="#788C8F"/>
<path transform="translate(862,1350)" d="m0 0 4 1 4 19 4 4 3 8 2 5 1 3h3v2l3 2 2 7-1 3-7-10-6-11v-3l-4-1-4-11-3-16z" fill="#689FA5"/>
<path transform="translate(859,341)" d="m0 0 18 3v1h-20l-4 1-7 1-3 1-3-1-2 4-6 4-11 1-15-2v-1l21-1 7-4 6-3z" fill="#6D8386"/>
<path transform="translate(872,1095)" d="m0 0h2v7l-2 5-2 7-3 7-3 12-4 1v-7l1-1 2-9 3-9h2v-7z" fill="#4A6D70"/>
<path transform="translate(991,776)" d="m0 0h17l17 3 14 5v2h7l6-1v3l-4 3-3 1-5-2-6-5-8-3-18-3h-16l-2 1h-8l3-3z" fill="#4A6E71"/>
<path transform="translate(471,719)" d="m0 0h6l2 1-1 5-4 6-6 3-6 1-1-6 3-2 3-5z" fill="#1E1D23"/>
<path transform="translate(642,782)" d="m0 0h9l-5 5-7 5-3 1h-8l-1-1v-6l3-2z" fill="#1E1D23"/>
<path transform="translate(786,755)" d="m0 0 7 1v17l-6 1-9-2 3-6h2l1-3 4-1z" fill="#1E1D23"/>
<path transform="translate(1007,1365)" d="m0 0h2l1 9 1 34-1 12v27l-2-4-1-39 1-11-1-7z" fill="#3C414C"/>
<path transform="translate(642,101)" d="m0 0 13 5h11l14 2 6 1-3 2-21 1-10-2-6-2-4-2z" fill="#7A8284"/>
<path transform="translate(392,993)" d="m0 0h3l5 6 5 4 5 6 3 6 4 3 10 1-1 2-11-1-6-3-5-4-4-6v-6l-6-1v-2h-2z" fill="#373642"/>
<path transform="translate(617,259)" d="m0 0h12l-1 5-11 6-7 2-5-1 1-3 5-2 2-5z" fill="#436267"/>
<path transform="translate(438,1208)" d="m0 0 1 4-7 9h-2l-1 4-3 7-6 5-1 12v9l2 16 1 3-2 1-3-14v-26l8-13 3-7 7-5z" fill="#6A7577"/>
<path transform="translate(622,1286)" d="m0 0h1l6 29-2 5-4-2-5-12 3-9z" fill="#75898C"/>
<path transform="translate(896 1e3)" d="m0 0h7l3 5-1 7-5 4-4-1-2-3v-8z" fill="#4A6E71"/>
<path transform="translate(963,1030)" d="m0 0h1l1 12-2 8-1 3-4 3h-2v2l-2 1v7l2 4 3 1v3l-5 1-2-1-1-3v-9l3-9h2l1-4 4-6z" fill="#51797C"/>
<path transform="translate(410,1009)" d="m0 0 7 7 13 1 6 3-1 7-1 2-4 1-5 8-2-1 1-6 5-6 1-4-4-1-9-1-6-5z" fill="#373743"/>
<path transform="translate(490,236)" d="m0 0 7 1v5l-1-3-19 3-27 2h-21v-1l25-2 11-2 16-1z" fill="#738688"/>
<path transform="translate(953,1137)" d="m0 0h5l3 1v4l4 2v7l-2 3h-4l-6-7-1-6z" fill="#4A6E71"/>
<path transform="translate(816,1196)" d="m0 0h8l2 2v6h2v10h-2l-2 9-8 3v-2l5-5 1-4v-17l-5 1-5 4h-2l2-5z" fill="#76C9CE"/>
<path transform="translate(497,243)" d="m0 0h2v2h2l2 15 5 12 2 3v14h2l-1 3-2-2-3-14-4-5-2-5z" fill="#6C7A7C"/>
<path transform="translate(961,1639)" d="m0 0h1v5l4 2 2 3-1 8-2 12-4 5z" fill="#7A7C7D"/>
<path transform="translate(925,940)" d="m0 0 2 1v14l-3 3-6 1-1-9 1-4h2l1-5z" fill="#496D70"/>
<path transform="translate(757,747)" d="m0 0h6l4 4-4 3-6 3-21 5-4 1-1-2 21-7 3-5h2z" fill="#1E1D23"/>
<path transform="translate(531,1272)" d="m0 0 1 2-1 6 1 5-4-1h-8l-7-2-1-4z" fill="#100D12"/>
<path transform="translate(935,894)" d="m0 0h2l1 5v15l-2 5h-3l-2-10-1-11 2-2 2 1z" fill="#3E5058"/>
<path transform="translate(897,1416)" d="m0 0 10 1 4 4v5l1 3 3 1-1 3 4 2v2l3 1v5l-6-5v-2l-3-1-2-3v-3l-4-2-7-7zm8 5m2 4 1 2z" fill="#79A6AC"/>
<path transform="translate(961,1633)" d="m0 0h1l3 10 4 2 1 2v18l-1 7h-3v2l-5 2 2-5 2-6 2-12v-5l-5-4z" fill="#656364"/>
<path transform="translate(1010,1443)" d="m0 0h1l3 19 4 12 1 8-3-1-5-12-1-4-2-4v-13z" fill="#393844"/>
<path transform="translate(783,1360)" d="m0 0h1l1 19 1 38h5l4-7h2l-2 5-2 4-7 1-3-4-1-34v-21z" fill="#629297"/>
<path transform="translate(721,694)" d="m0 0 5 2 5 1 3 2-1 4-2 4-4-3-4 1-2 4h-2l-3-7 1-2h3z" fill="#100D12"/>
<path transform="translate(434,519)" d="m0 0h4l1 6v12l3 8 6 3 4 5 8 4v2l-6-1-6-4-10-9-2-6v-18z" fill="#41454F"/>
<path transform="translate(786,411)" d="m0 0 7 1 2 2v6l-4 3-7-1-3-4 2-6z" fill="#33313E"/>
<path transform="translate(524,667)" d="m0 0 3 1 3 11 1 29 1 9v3l-7-1-9-1-2-2 15-1-1-30-3-15-2-1-1 5-3 3 1-5 2-4z" fill="#719499"/>
<path transform="translate(656,229)" d="m0 0 6 2-1 4-4 2-15-1-5-1 1-4h7z" fill="#100D12"/>
<path transform="translate(935,1458)" d="m0 0h5l1 7 7 1 3 2 1 5 2 1-2 6-1 7-2-3-4-10-6-10-2-4z" fill="#3B3A45"/>
<path transform="translate(312,989)" d="m0 0h1l1 46 3 14 4 5 3 5-1 3-9-10-2-11-1-13z" fill="#546870"/>
<path transform="translate(533,267)" d="m0 0h8l7 2 1 3-4 3h-13l-2-2v-5z" fill="#4F7679"/>
<path transform="translate(1024,781)" d="m0 0 7 2 6 3 6 5 4-1 4-2-2 9-1 3-4-2-10-9-3-2v-2l-8-1z" fill="#527B7E"/>
<path transform="translate(372,825)" d="m0 0 1 2-6 10-2 10-1 17-3 8-5 12h-1v-7l6-13 1-4 1-17 2-9z" fill="#6A7578"/>
<path transform="translate(1e3 622)" d="m0 0 7 14 3 5v2l5 2 4-1 6-8 6-1h8v1h-5v2l-8 1-1 4-4 4h-7l-5-3-3-5-5-5-1-7z" fill="#6B7B7E"/>
<path transform="translate(440,461)" d="m0 0 1 2-5 9-3 1-4 12-1 31h2l-1 2-3-2-1-8 2-29 3-7 4-2z" fill="#72999E"/>
<path transform="translate(941,443)" d="m0 0h2l1 7-2 7-5 2-7-1-4 1h-7l5-4 7-6h2l1-3-1 6-1 4h5l5-8-2-4z" fill="#100D12"/>
<path transform="translate(514,1256)" d="m0 0 5 1v7l6 2v3l-7 1-5-3-3-2 1-5 1-3z" fill="#100D12"/>
<path transform="translate(854,1337)" d="m0 0 5 5-2 9h-7l-2-2 1-9z" fill="#4A6D71"/>
<path transform="translate(397,1064)" d="m0 0 2 2-9 3-3 14-4 8-4 2h-5l4-2 3-2 5-21 5-3z" fill="#3E404A"/>
<path transform="translate(932,822)" d="m0 0 1 2h3v2h2l1 6v23h-2l-5-30z" fill="#77CACF"/>
<path transform="translate(385,1623)" d="m0 0h2v2l-7 3-4 1-1 6-5 2v1l-7 1-3 1v2l-6 4-1 1h-7l1-2 8-2 1-4 7-3 9-3 4-8z" fill="#616367"/>
<path transform="translate(828,1046)" d="m0 0 1 2-5 12-2 5h-2v9l-4 9-2 4-6 4 6-15 2-1 1-8 3-5h2l1-7z" fill="#4D6266"/>
<path transform="translate(612,1254)" d="m0 0h6l3 3 1 7-2-3-3-5-5 2-4 7 1 9 5 5 6 5v10l-2-4v-5l-8-5-2-2v-3h-2l-1-7 2-8 3-5z" fill="#454855"/>
<path transform="translate(531,266)" d="m0 0h15l5 3 1 4-5 4h-16l-4-4 1-6zm2 1-3 1v5l2 2h13l4-4-3-3-5-1z" fill="#3F545C"/>
<path transform="translate(344,1645)" d="m0 0 2 1-1 2-5 2h-2l-1 2-5 3-8 3-2 8-5 2-10-2-2-2h13l4-8 10-4 5-5z" fill="#6A7072"/>
<path transform="translate(957,1111)" d="m0 0h2l4 11 4 6 1 9-3-2-1-4-3-2-4-7-2-4v-6z" fill="#65999F"/>
<path transform="translate(911,624)" d="m0 0 4 2 5 5 5 6v8l-3 2-2 4-2-9v-3h2l2 4-1-4-3-3h-3l-1-5z" fill="#6C8083"/>
<path transform="translate(561,240)" d="m0 0 7 1v4l-2 3v5h-3l-3-4 1-2h-6l-2-1v-3z" fill="#100D12"/>
<path transform="translate(1062,1624)" d="m0 0 4 1-3 9v9l3 8 2 4-6-1-2-3-2-13 1-1 2-10z" fill="#3D3E49"/>
<path transform="translate(978,999)" d="m0 0 3 1 1 7 1 2-5 8-3-2-2-12z" fill="#436267"/>
<path transform="translate(563,226)" d="m0 0h14v1l-18 2-24 5-19 2h-10v-1l24-3 21-4z" fill="#454855"/>
<path transform="translate(499,734)" d="m0 0 4 4 3 7v3h2v6l-8-1-1-1z" fill="#1E1D23"/>
<path transform="translate(882,576)" d="m0 0 3 1 3 4-1 4 3-1-1 9 2 1-1 3-8-10-3-5v-5z" fill="#3A3C47"/>
<path transform="translate(322,1676)" d="m0 0h16l7 1-2 1-1 3h-11l-7 1-3-2z" fill="#454855"/>
<path transform="translate(441,468)" d="m0 0 1 3-3 4-4 7v3h-2l1 5-5 10h-1v-15l4-5h2v-5h2z" fill="#454855"/>
<path transform="translate(613,1262)" d="m0 0 5 1 2 4 2 10v4l-2-3-1-4-6-1-3-5 2-5z" fill="#758183"/>
<path transform="translate(752,716)" d="m0 0 19 1 3 5 3 8 1 10 2 6-4-2-3-14-1-8h-2l-1-3h-12l-5-1z" fill="#666E72"/>
<path transform="translate(671,695)" d="m0 0 1 2 7-2h13l2 7-2 2-3-5-11-1-3 2-2 8v5l-2-2v-13l-2-1h2z" fill="#100D12"/>
<path transform="translate(850,537)" d="m0 0 6 3 4 6 6 2-2 1-9-3-6-3-4 10-1 8h-1v-9l3-12z" fill="#393945"/>
<path transform="translate(468,434)" d="m0 0 2 1-1 3h-3v2l2 1-14 7-5 5-1 3h-2l-1 4-4 1 7-11 5-6 9-5 3-1 1-3z" fill="#748D90"/>
<path transform="translate(948,456)" d="m0 0 2 1v21l2 13v5l-3 3-1 5h-1l-1-7 2-16z" fill="#40434E"/>
<path transform="translate(472,435)" d="m0 0h1l1 12-10 4-9 3-1 2h-2l-1 4-6 4v-3l9-9 6-4 7-1 1-3h2z" fill="#454855"/>
<path transform="translate(975,997)" d="m0 0 3 1v2l-4 3v18l-1 3-9 6 3-9 4-6 1-13z" fill="#50787B"/>
<path transform="translate(929,714)" d="m0 0v3l-5 7h-2v59h-2v-60l5-5z" fill="#646364"/>
<path transform="translate(740,659)" d="m0 0h1v10l-1 6-2-1-1-4-1 5-7-1-1-3 4-5 3-2h3v-2h2z" fill="#1B191F"/>
<path transform="translate(669,216)" d="m0 0h16v1l-24 3-16 3-7 1h-17v-1l30-3 6-2z" fill="#454855"/>
<path transform="translate(1043,1696)" d="m0 0h18l1 4-13 2-5-1v-2h-3v-2z" fill="#474A56"/>
<path transform="translate(960,1692)" d="m0 0 3 1v15l-2 1-1 15h-1l-1-6v-16z" fill="#505E66"/>
<path transform="translate(354,209)" d="m0 0 3 1-4 4-5 3-10 5-11 5-4-1 12-7 12-5z" fill="#759498"/>
<path transform="translate(839,1362)" d="m0 0h5l-1 9-4 6-3 3h-2l2-9h2l-1-6z" fill="#4F7579"/>
<path transform="translate(692,1243)" d="m0 0 3 1-3 3 1 7 3 10 4 7v5l-3-3v-2h-2v-3h-2v-3l-2-1-1-4v-15z" fill="#454855"/>
<path transform="translate(605,381)" d="m0 0 2 1-11 6-3 3-8 3h-21v-1l15-1 16-7 7-3z" fill="#6B7B7E"/>
<path transform="translate(382,1711)" d="m0 0h17l-3 2-16 5-8 1 2-1 1-4 4-2z" fill="#3D3E48"/>
<path transform="translate(530,1594)" d="m0 0h8l7 1 2 2v6l-7-1v-2h-3v-2h-6z" fill="#676B6D"/>
<path transform="translate(479,904)" d="m0 0h1l1 19-3 12-5 5-2 1 1-8 5-7z" fill="#444754"/>
<path transform="translate(663,1333)" d="m0 0 3 1 5 6 4 4v3l5 2 1 3h2l3 5-1 2-7-7-7-6-8-11z" fill="#697476"/>
<path transform="translate(611,376)" d="m0 0h1v5l-8 5-3 5-9 3-5-1 3-2 5-3 4-3 8-4 3-1z" fill="#383844"/>
<path transform="translate(942,169)" d="m0 0h6l1 5-9 3-7 2 1-3 5-1-3-1v-2l-5-1v-1z" fill="#68878B"/>
<path transform="translate(273,1710)" d="m0 0 16 2v2h2v2h2l2 4-7-1-14-7z" fill="#464952"/>
<path transform="translate(668,637)" d="m0 0h3l-1 4-5 5-4 5-5 5h-2l1-5 5-5z" fill="#1E1D23"/>
<path transform="translate(780,530)" d="m0 0 5 3 2 5-8 3-4 2-1-8 5-2z" fill="#1E1D23"/>
<path transform="translate(808,1400)" d="m0 0h7l-2 4-9 9h-6l-2 1 1-4 5-2 3-2 2-5z" fill="#507578"/>
<path transform="translate(986,971)" d="m0 0h3l2 9-4 8-3-1v-9l-2-2 2-4z" fill="#486B6F"/>
<path transform="translate(834,1376)" d="m0 0 1 4-3 5-7 6v-3l-6 2 3-3h2l1-5 3-3 5-2z" fill="#629297"/>
<path transform="translate(935,1113)" d="m0 0 5 2v7l-4 7-3-1v-13z" fill="#4A6E71"/>
<path transform="translate(512,292)" d="m0 0 7 2 3 4v3l4 1 5 5v12l-2-3-3-11-5-2-5-7z" fill="#6D7C7F"/>
<path transform="translate(859,341)" d="m0 0 18 3v1h-20l-4 1-7 1-3 1-9 1 3-3z" fill="#69777A"/>
<path transform="translate(961,1524)" d="m0 0h2l2 7 6 3 2 4v8l-2 1-1-3v-8h-7l-2-3z" fill="#353441"/>
<path transform="translate(487,853)" d="m0 0h9l1 3-5 5-6 1-1-5z" fill="#1E1D23"/>
<path transform="translate(316,250)" d="m0 0h7l2 2-5 1-44 1v-2l28-1z" fill="#7A7C7D"/>
<path transform="translate(456,644)" d="m0 0h1v48l-2 4-4-1 3-2 1-12v-13z" fill="#6F8D91"/>
<path transform="translate(903,441)" d="m0 0 7 2 1 4-2 2h-10l-1-4z" fill="#302E3B"/>
<path transform="translate(1018,885)" d="m0 0h2v7l-3 10-2 1v-3h-2l1-9 1-5z" fill="#507175"/>
<path transform="translate(947,848)" d="m0 0h1v16l-3 7-3-4 2-14z" fill="#4A6E71"/>
<path transform="translate(799,1297)" d="m0 0h2l2 9-1 4-5 1-2-1 1-10z" fill="#7C7B7C"/>
<path transform="translate(756,1134)" d="m0 0 5 2 2 4-1 2h2l2 7 1 4v2l5 1-3 1-3-1-7-13z" fill="#5C6066"/>
<path transform="translate(934,891)" d="m0 0 4 1-4 1v3h-3v15l-2-1-2-12h-3v-2h2l1-3z" fill="#59797B"/>
<path transform="translate(646,1311)" d="m0 0h5l3 5v3l5 1 3 5 1 8-3-3-12-17z" fill="#687476"/>
<path transform="translate(439,1184)" d="m0 0h6l3 2v14l-3 5h-3l-1 3-2-1 4-6 2-8v-7h-6z" fill="#6C797C"/>
<path transform="translate(894,1040)" d="m0 0 1 3-5 13-3 9-3 11-2 1 1-7 3-12 1-5h2l1-6 3-6z" fill="#51797C"/>
<path transform="translate(953,821)" d="m0 0h4l1 5-3 7-4-1-2-4 1-6z" fill="#436267"/>
<path transform="translate(859,374)" d="m0 0 10 1 3 2v4h-8l-6-2z" fill="#436267"/>
<path transform="translate(579,235)" d="m0 0 3 1-2 4h6v5 3l-3 1-4-5-5-3z" fill="#100D12"/>
<path transform="translate(426,1569)" d="m0 0 1 3-7 6-2 8-4 6-4 2-3 2 2-5 5-5 4-9z" fill="#657073"/>
<path transform="translate(436,1135)" d="m0 0h1l1 7-3 18-1 3-4 1 4-19z" fill="#75898C"/>
<path transform="translate(383,931)" d="m0 0 10 2v2h-2l-1 3h-10l-2-2v-3z" fill="#161419"/>
<path transform="translate(1039,636)" d="m0 0 4 2 2 7 2 18 1 4-3-1-2-3-2-23z" fill="#696F71"/>
<path transform="translate(303,1665)" d="m0 0 3 2-2 2h-3l-1 3-9 5h-2l-2 4-3 3h-2l2-5 5-4z" fill="#676D70"/>
<path transform="translate(920,901)" d="m0 0 2 2v3l3 1 1 3 2 1 2 11v5l-5 1 2-1-2-12-4-7z" fill="#84DEE7"/>
<path transform="translate(959,649)" d="m0 0 2 1 2 9h2l1 4-3 3h-15l1-2h5l1-2 4 1 1-5-1-2z" fill="#454855"/>
<path transform="translate(888,166)" d="m0 0 9 2 8 1 24 1v1l-23 1h-10l-5-2z" fill="#73B6BD"/>
<path transform="translate(787,1316)" d="m0 0 5 2-1 10-1 2-4-1v-2h-2l1-4z" fill="#7A797A"/>
<path transform="translate(872,1095)" d="m0 0h2v7l-4 10-4 2 2-13z" fill="#656364"/>
<path transform="translate(920,717)" d="m0 0 3 1v3h-2l-1 57h-1v-59z" fill="#6BA3A9"/>
<path transform="translate(799,491)" d="m0 0 4 1 4-1 4 1v4l-9 2-4-1-1-3z" fill="#454855"/>
<path transform="translate(490,236)" d="m0 0 7 1v5l-1-3-19 3-14 1 2-2 11-1 7-3z" fill="#76999D"/>
<path transform="translate(808,1275)" d="m0 0h2l2 7-2 9h-2l-4-7 2-4 1-4z" fill="#7C7B7C"/>
<path transform="translate(995,943)" d="m0 0 2 3 2-1 1 4-2 4 1 5-4 4-2-6v-4l2-1-1-7z" fill="#47686C"/>
<path transform="translate(891,597)" d="m0 0 9 1 2 5-2 7-4-4-5-7z" fill="#555A60"/>
<path transform="translate(562,394)" d="m0 0h2l-1 3-10 10-3 8-3 1 1-6 3-6z" fill="#696F71"/>
<path transform="translate(986,1695)" d="m0 0h11l3 1v2l-13 3-3-1-1-4z" fill="#656364"/>
<path transform="translate(1e3 912)" d="m0 0h5l-1 5-1 8-5 1 1-12z" fill="#52787C"/>
<path transform="translate(499,422)" d="m0 0h23v1l-17 1-14 4-3 3-2-1 5-6z" fill="#707C7E"/>
<path transform="translate(568,361)" d="m0 0 10 1 8 1 6 3 2 5-9-3-3-2-14-4z" fill="#63676A"/>
<path transform="translate(637,344)" d="m0 0v3l-8 7-8 9-7 3-3-1 7-5h2v-2l5-4h2l1-3z" fill="#100D12"/>
<path transform="translate(416,710)" d="m0 0h3l-1 6h-2l-1 5-3 3-1 3h-3v5l-2 1 1-7 7-11z" fill="#6D7B7E"/>
<path transform="translate(965,679)" d="m0 0 3 1v11l-4 4-2-1 1-12z" fill="#454855"/>
<path transform="translate(966,1672)" d="m0 0 2 1-2 1zm-2 2 2 1-2 5v7l-1 5h-3v-16z" fill="#3F444E"/>
<path transform="translate(955,1496)" d="m0 0 2 3v5h3l1 2v21h-1l-2-20h-2l-3-7v-3z" fill="#6A7B7E"/>
<path transform="translate(697,1243)" d="m0 0 5 1 3 3 1 4 5 1 5 7-1 2-8-8-11-7z" fill="#6B7678"/>
<path transform="translate(970,1154)" d="m0 0h1l2 18-4-2-6-5 3-2h2z" fill="#71B0B8"/>
<path transform="translate(808,605)" d="m0 0h5l-1 5-7 9-3 2v-3h2l-1-5h3l-1-3z" fill="#363541"/>
<path transform="translate(1061,1607)" d="m0 0 6 1 2 10h-2l-1 2-4-3z" fill="#100D12"/>
<path transform="translate(571,1277)" d="m0 0 6 2v6l-3 3h-2l-3-5 1-5z" fill="#100D12"/>
<path transform="translate(933,1227)" d="m0 0h5l4 1 1 6-6 2-4-3z" fill="#131116"/>
<path transform="translate(428,1174)" d="m0 0h1v16l2-3h7l-4 6-5 1-2-2v-9z" fill="#799397"/>
<path transform="translate(468,951)" d="m0 0h1l1 15-1 12-3 7-1-2 2-6v-10l-1-10z" fill="#629095"/>
<path transform="translate(419,181)" d="m0 0h2l-2 7-7 2-14 3h-3l3-3 16-3h2l1-5z" fill="#70AEB5"/>
<path transform="translate(964,1563)" d="m0 0 5 1 1 1-1 11-2 3h-2l-1 2 1-14z" fill="#769195"/>
<path transform="translate(782,1419)" d="m0 0h2v3l2 1-1 3 4 1-5 3-4-1-1-1v-8z" fill="#666768"/>
<path transform="translate(798,354)" d="m0 0h7l-4 2-7 2v3l-7 1-7-6 3-1 4 3 4-1z" fill="#6E8487"/>
<path transform="translate(289,1677)" d="m0 0 2 1-2 1zm-1 2m-1 1m-1 1m-1 1 1 2-4 8-6 3-2 3h-2l2-4 5-6 2-4z" fill="#32313E"/>
<path transform="translate(875,1384)" d="m0 0 3 1 2 5h3v2l3 2 2 7-1 3-7-10z" fill="#669AA0"/>
<path transform="translate(788,1150)" d="m0 0 1 4-3 9-1 9h-2l-1 4h-4l-1-3 3-1v-2h2l1-10z" fill="#444855"/>
<path transform="translate(676,616)" d="m0 0h4l1 8-3 3-4-2v-6z" fill="#1E1D23"/>
<path transform="translate(305,1716)" d="m0 0 6 1 2-1v2h6v2l-23 1 2-1v-2z" fill="#353945"/>
<path transform="translate(622,1286)" d="m0 0h1l3 16-1 4-1-2-2 1-1 3-3-1 3-10z" fill="#73B4BC"/>
<path transform="translate(533,1207)" d="m0 0 4 1 6 9-2 5-4-5-4-4h3l-2-4-2-1z" fill="#100D12"/>
<path transform="translate(969,783)" d="m0 0h2l-2 5-1 2v10h-1l-1-5-4-2-1-3h3l1-4z" fill="#4A6E71"/>
<path transform="translate(1007,1365)" d="m0 0h2l1 9v21l-2-2-1-7z" fill="#3D3D48"/>
<path transform="translate(394,764)" d="m0 0h1v6l-4 5v2h-2l1 4-3 7-1-4 5-17z" fill="#696E70"/>
<path transform="translate(960,1709)" d="m0 0h2l2 8-1 5v7l2 1h-3l-2-2z" fill="#312F3C"/>
<path transform="translate(622,1264)" d="m0 0 2 3 3 10 6 5-1 3-2-3-8-4z" fill="#454855"/>
<path transform="translate(964,1544)" d="m0 0 5 2v9l-1 3h-4z" fill="#767E80"/>
<path transform="translate(966,1028)" d="m0 0h3v2h3l-1 9h-3l-3-2v-8z" fill="#436267"/>
<path transform="translate(469,972)" d="m0 0h1v10l-4 9h-4l-1 2v-5l5-4z" fill="#788082"/>
<path transform="translate(766,718)" d="m0 0 4 1v3h2l2 8v4h-2l-2-8h-2l-4-7z" fill="#454855"/>
<path transform="translate(547,108)" d="m0 0h6l-4 3-6 2-4 4h-7l5-5 5-3z" fill="#74999E"/>
<path transform="translate(935,894)" d="m0 0h2l1 5v12h-1l-1-10h-3v6l-2 2-1-11 2-2 2 1z" fill="#476468"/>
<path transform="translate(450,737)" d="m0 0 3 1 2 10h4l-1 4-6-2-2-5-1-7z" fill="#656364"/>
<path transform="translate(534,268)" d="m0 0h7l5 2-2 3h-10l-2-1v-3z" fill="#629297"/>
<path transform="translate(902,1197)" d="m0 0h5l2 4-1 4-4 2-2-1z" fill="#3E5058"/>
<path transform="translate(386,1077)" d="m0 0h2l-1 6-4 8-4 2h-5l4-2 3-2 3-10z" fill="#434650"/>
<path transform="translate(828,1046)" d="m0 0 1 2-5 12-2 5h-2l-1 6-3 3 1-7 3-5h2l1-7z" fill="#656364"/>
<path transform="translate(1e3 622)" d="m0 0 7 14 3 5v2l3 1v2l-4-2-3-5-5-5-1-7z" fill="#5C656B"/>
<path transform="translate(737,344)" d="m0 0 5 1v1l-7 1-6 5-9 1-2-1 12-5z" fill="#67767A"/>
<path transform="translate(417,188)" d="m0 0 1 2-7 2-8 1-6 3h-3v2h-5l4-3 8-4z" fill="#7B8082"/>
<path transform="translate(384,970)" d="m0 0h1l2 11 7 11h-3l-5-5-3-5z" fill="#3F3F4A"/>
<path transform="translate(508,432)" d="m0 0 9 1-2 5-4 2-4-2v-5z" fill="#100D12"/>
<path transform="translate(541,267)" d="m0 0h8l3 3-1 4-2 2h-17v-1l13-1 3-3v-2l-7-1z" fill="#415C62"/>
<path transform="translate(469,1694)" d="m0 0 3 3v2h5l4 4h-10l-2-1-1-7z" fill="#383743"/>
<path transform="translate(923,1217)" d="m0 0 6 1 2 5 14 1v1h-17l-5-4z" fill="#57636C"/>
<path transform="translate(952,1062)" d="m0 0 4 8 3 1v3l-5 1-2-1-1-3v-8z" fill="#527A7D"/>
<path transform="translate(385,806)" d="m0 0h1v13l-1 3-12 3 4-4h6v-9z" fill="#6A7679"/>
<path transform="translate(961,1645)" d="m0 0 3 1v9l-2 15h-1z" fill="#75BAC2"/>
<path transform="translate(513,120)" d="m0 0 4 1-6 5-4 4-6 2-2 3 1-5 4-3 5-1 1-4z" fill="#77ABB2"/>
<path transform="translate(385,1623)" d="m0 0h2v2l-7 3-4 1-1 6-4-1 5-9z" fill="#677175"/>
<path transform="translate(875,1280)" d="m0 0 2 2-1 6-4 4h-2l-1-4 3-5 3-1z" fill="#436267"/>
<path transform="translate(1056,737)" d="m0 0 3 3v14l-1 8h-1l-1-12v-7l-1-2z" fill="#5A636B"/>
<path transform="translate(664,711)" d="m0 0h2l1 10-4 2-2-2 1-6z" fill="#1E1D23"/>
<path transform="translate(275,242)" d="m0 0 2 1-3 1v2l-4 1-9 1v5l1 2h-3l-1-7 5-3z" fill="#B3F0F8"/>
<path transform="translate(970,1571)" d="m0 0h1v7l-2 5-6 2-2 1 2-5h2v-2l3-3z" fill="#66686A"/>
<path transform="translate(530,1223)" d="m0 0h6l6 5 5 5 3 4v4h-2l-2-6-6-4-4-5-6-2z" fill="#3B3B46"/>
<path transform="translate(457,1015)" d="m0 0 1 4-7 14-1-4 3-10z" fill="#788082"/>
<path transform="translate(754,349)" d="m0 0 14 4 12 1v1h-14l-12-1z" fill="#6A7A7D"/>
<path transform="translate(581,1268)" d="m0 0h6l3 2 1 7-7-5h-4z" fill="#505760"/>
<path transform="translate(882,1255)" d="m0 0h3l-1 8-3 6v2h-2l1-10 1-5z" fill="#436267"/>
<path transform="translate(940,695)" d="m0 0 4 5-2 2h-5l-2 7-3 1v-2h2l-2-4 1-3 5-1-1-3h3z" fill="#454855"/>
<path transform="translate(912,1429)" d="m0 0 3 1-1 3 4 2v2l3 1v5l-6-5v-2l-3-1-1-3z" fill="#666A6C"/>
<path transform="translate(851,1342)" d="m0 0h4l1 5-2 3-5-1v-5z" fill="#436267"/>
<path transform="translate(817,1252)" d="m0 0 1 2 4 1-1 6-6 1 1-7z" fill="#526C6F"/>
<path transform="translate(934,833)" d="m0 0 3 1 2 15v6h-2l-3-18z" fill="#8EECF8"/>
<path transform="translate(434,519)" d="m0 0h4l1 6v9l-1 6-2-1v-18z" fill="#658087"/>
<path transform="translate(429,483)" d="m0 0 3 2-1 6v6l-3 3v-15z" fill="#6A6869"/>
<path transform="translate(938,393)" d="m0 0 3 4 8 14 1 4-2-1v-2l-3-1-7-15z" fill="#676E70"/>
<path transform="translate(719,266)" d="m0 0 1 3-2 6-4 8-5-1 3-3h2l2-10 3-1z" fill="#636C70"/>
<path transform="translate(410,1009)" d="m0 0 7 7 13 1-2 2h-11l-6-5z" fill="#667174"/>
<path transform="translate(929,714)" d="m0 0v3l-5 7h-2v9l-2 1v-11l5-5z" fill="#6A6869"/>
<path transform="translate(958,538)" d="m0 0 5 5 6 7v3h-2l-2-5-5-1-2-5z" fill="#32303D"/>
<path transform="translate(805,354)" d="m0 0h6v1l-9 3-2 2h-4v2l-4 1v-2h2v-3l7-3z" fill="#353541"/>
<path transform="translate(882,346)" d="m0 0 9 6 6 3-3 1-7-1-4-3z" fill="#68777B"/>
<path transform="translate(710,663)" d="m0 0 2 1-1 2h-2l-1 3h-2v2l-7 2-4 2 1-4 9-4z" fill="#100D12"/>
<path transform="translate(728,647)" d="m0 0 2 1-4 2-2 4-5 5-4 2 3-5 7-8z" fill="#100D12"/>
<path transform="translate(680,308)" d="m0 0h2l1 14 5 2-4 2-3-1-1-2z" fill="#4D575F"/>
<path transform="translate(1078,1688)" d="m0 0h2v22h-1l-2-10-1-2z" fill="#100D12"/>
<path transform="translate(1062,1624)" d="m0 0 4 1-3 9-1 8h-1l-1-12z" fill="#4E575F"/>
<path transform="translate(1024,1511)" d="m0 0 2 3 5 9v2l5 2-3 1-5-2-2-3-2-8z" fill="#5C6368"/>
<path transform="translate(775,1173)" d="m0 0 3 1 2 3 3 1 2 3-1 7-3-4z" fill="#64878B"/>
<path transform="translate(871,1109)" d="m0 0h1l-1 7-6 17h-1l1-7 3-11 2-2z" fill="#51797C"/>
<path transform="translate(931,909)" d="m0 0h1l2 12 3-1v5l-4 2-3-9v-7z" fill="#50777A"/>
<path transform="translate(476,844)" d="m0 0 3 1v13l1 3-2 4-2-10z" fill="#565D65"/>
<path transform="translate(966,1731)" d="m0 0 9 2 5 6-9-3-6-3z" fill="#3B3C47"/>
<path transform="translate(790,1420)" d="m0 0 4 1-3 5h-6l-1-5z" fill="#48525A"/>
<path transform="translate(695,1246)" d="m0 0 1 2 4 2v10l-3-2-2-7z" fill="#777E80"/>
<path transform="translate(630,248)" d="m0 0h8l1 2-1 2-6 1-4-2v-2z" fill="#100D12"/>
<path transform="translate(344,1645)" d="m0 0 2 1-1 2-5 2h-2l-1 2-4 2-3-1 7-6z" fill="#656F71"/>
<path transform="translate(354,880)" d="m0 0h1v16l-1 5h-7v-1l5-1v-12z" fill="#6B8488"/>
<path transform="translate(479,867)" d="m0 0 4 5 2 3-1 4h-3l-1 3z" fill="#646D70"/>
<path transform="translate(524,667)" d="m0 0 3 1 3 12h-2l-3-10-2-1-1 5-3 3 1-5 2-4z" fill="#5A676E"/>
<path transform="translate(788,490)" d="m0 0 4 2 1 3-3 3-4-2-1-5z" fill="#1E1D23"/>
<path transform="translate(322,1676)" d="m0 0h12v1l-7 1v2l3 1-6 1-3-2z" fill="#444754"/>
<path transform="translate(544,1467)" d="m0 0 2 1-8 16h-1l-1-6 3-5h3l1-5z" fill="#3F404B"/>
<path transform="translate(320,973)" d="m0 0 2 1-2 4-4 6-2 5h-1l1-8z" fill="#6A7476"/>
<path transform="translate(999,940)" d="m0 0 2 4v8l-1 5-3-4 2-1v-5h-3v-5z" fill="#5B8386"/>
<path transform="translate(282,241)" d="m0 0 3 1h-2l-1 5h-10l2-1v-2l4-2z" fill="#708588"/>
<path transform="translate(531,1598)" d="m0 0h6v2h3v2l4-1 3 3-14-2z" fill="#454855"/>
<path transform="translate(886,1241)" d="m0 0 2 4-2 6-5 2 2-5 1-5z" fill="#51797C"/>
<path transform="translate(840,1194)" d="m0 0 3 1v6l-5 1-1-4 1-3z" fill="#436267"/>
<path transform="translate(838,814)" d="m0 0 5 1v7l-5-2-1-4z" fill="#515962"/>
<path transform="translate(948,649)" d="m0 0 1 3-1 3-3 2-1 4h-3l-1 4-1-3 1-4 5-4z" fill="#454855"/>
<path transform="translate(607,403)" d="m0 0h1l-1 9-1 2h-2l-2 5-4 2-3-1 5-2 2-4 3-3z" fill="#1E1D23"/>
<path transform="translate(319,227)" d="m0 0h4v2l-9 2h-5v2l-3 1 1-5z" fill="#778588"/>
<path transform="translate(942,169)" d="m0 0h6l1 5-2-1v-3l-6 3h-5v-1l-5-1v-1z" fill="#88C5CD"/>
<path transform="translate(463,157)" d="m0 0 4 1-6 4h-3l-1 5-5 1 3-2 1-6z" fill="#759CA1"/>
<path transform="translate(663,1333)" d="m0 0 3 1 7 9-1 4-9-12z" fill="#768689"/>
<path transform="translate(422,1283)" d="m0 0h3l2 6 1 2v7h-2z" fill="#6E7C7F"/>
<path transform="translate(814,597)" d="m0 0 5 1-5 9-3-3 1-4z" fill="#3D414C"/>
<path transform="translate(968,555)" d="m0 0 2 3 1 4 1 5h-4l-1-2v-9z" fill="#302E3B"/>
<path transform="translate(588,390)" d="m0 0h2v2l-5 2h-21v-1l15-1z" fill="#616F73"/>
<path transform="translate(928,379)" d="m0 0 5 5 5 7-1 2-8-8-2-5z" fill="#676D6E"/>
<path transform="translate(859,374)" d="m0 0 5 1v2l3 1-3 2-6-1z" fill="#46676B"/>
<path transform="translate(722,209)" d="m0 0h9l2 1-1 6-3-3-7-1z" fill="#494C58"/>
<path transform="translate(829,1381)" d="m0 0h5l-2 4-3 3h-3v-5z" fill="#506F73"/>
<path transform="translate(935,1342)" d="m0 0 3 2v4l-6 1-1-3 1-3z" fill="#656364"/>
<path transform="translate(672,1339)" d="m0 0 4 2 1 3 4 2 2 6h-2l-4-4-2-1-3-6z" fill="#454855"/>
<path transform="translate(654,1320)" d="m0 0h2v2l4 1v2h2l1 8-3-3-6-9z" fill="#758689"/>
<path transform="translate(920,901)" d="m0 0 2 2v3l3 1 1 3 2 1v6l-1-4-5-2-2-6z" fill="#7ACFD5"/>
<path transform="translate(361,869)" d="m0 0v3l-5 12h-1v-7l3-7z" fill="#676E6F"/>
<path transform="translate(731,668)" d="m0 0 5 1v6l-7-1-1-3z" fill="#100D12"/>
<path transform="translate(827,150)" d="m0 0 9 1 8 4-1 2-9-2-7-4z" fill="#71B0B7"/>
<path transform="translate(946,1474)" d="m0 0 4 1 2 5-1 7-2-3z" fill="#6D7D80"/>
<path transform="translate(916,1197)" d="m0 0 2 1 2 11-4-1-1-1z" fill="#67878A"/>
<path transform="translate(932,909)" d="m0 0 1 3 4-1 1 3-2 5h-3l-1-2z" fill="#426166"/>
<path transform="translate(990,602)" d="m0 0 4 5 5 9-1 2-5-6-3-7z" fill="#697072"/>
<path transform="translate(497,243)" d="m0 0h2v2h2v11l-2 2z" fill="#6E8083"/>
<path transform="translate(326,1654)" d="m0 0h6l-8 4-1 6-4-1 3-7z" fill="#6F878B"/>
<path transform="translate(558,1266)" d="m0 0h2l-1 5-4 1v-2l-5-1 2-2z" fill="#100D12"/>
<path transform="translate(903,1194)" d="m0 0h7l6 3-1 3v-2l-13-1-2 1 1-3z" fill="#4F7679"/>
<path transform="translate(921,949)" d="m0 0 4 1 1 4-3 2-4-1 1-4z" fill="#436267"/>
<path transform="translate(931,883)" d="m0 0 2 1-2 3-4 2-6 5-2-1 5-6z" fill="#81D7E0"/>
<path transform="translate(577,91)" d="m0 0 2 1-2 3-5 1-1 2-8 1 5-4z" fill="#73959A"/>
<path transform="translate(1065,1570)" d="m0 0 2 2 3 10-1 4-3-6-2-7z" fill="#515862"/>
<path transform="translate(574,1419)" d="m0 0 2 1-4 6-3 3-1-4 2-4z" fill="#393A45"/>
<path transform="translate(990,1292)" d="m0 0 2 3 5 13-1 3-2-1-3-11z" fill="#555E66"/>
<path transform="translate(479,904)" d="m0 0h1l1 19-1 3h-2z" fill="#454855"/>
<path transform="translate(471,738)" d="m0 0 6 2-3 5h-3l-1-6z" fill="#656364"/>
<path transform="translate(428,696)" d="m0 0h6v1l-5 1-2 4h-2v2l-5 4-2-1z" fill="#637479"/>
<path transform="translate(969,553)" d="m0 0 2 3 4 10v3h-3l-2-7-1-5z" fill="#555B63"/>
<path transform="translate(806,1399)" d="m0 0 4 1-3 2-2 5-4 3-4-1 5-3 2-5z" fill="#629297"/>
<path transform="translate(624,1312)" d="m0 0h3l2 5-3 3-3-2z" fill="#666C6E"/>
<path transform="translate(994,953)" d="m0 0 5 1-1 6-3 2-1-5z" fill="#446367"/>
<path transform="translate(582,365)" d="m0 0h9l3 6-9-3z" fill="#69797B"/>
<path transform="translate(859,341)" d="m0 0 18 3v1h-20l-1-3z" fill="#6C8285"/>
<path transform="translate(681,328)" d="m0 0 3 1 3 2-2 3h-6l-1-3h2z" fill="#100D12"/>
<path transform="translate(358,1638)" d="m0 0 3 1-4 2-3 5-1 1h-7l1-2 8-2 1-4z" fill="#6D7B7D"/>
<path transform="translate(972,1577)" d="m0 0h1l-1 7-3 1h-6l1-2 5-1 1-4z" fill="#383845"/>
<path transform="translate(879,1255)" d="m0 0 1 4-2 8-3 6-1-2z" fill="#51797C"/>
<path transform="translate(823,1199)" d="m0 0 2 3v11l-2 6-1-4v-14z" fill="#8FEDF9"/>
<path transform="translate(380,932)" d="m0 0 4 3 4 1 2 2h-10l-2-2v-3z" fill="#100D12"/>
<path transform="translate(427,500)" d="m0 0h1v16h2l-1 2-3-2-1-8z" fill="#6D7E81"/>
<path transform="translate(897,1416)" d="m0 0 5 1 5 2v2h-7z" fill="#708083"/>
<path transform="translate(995,940)" d="m0 0h2l-2 4 1 7-3 1-1 4 1-13z" fill="#50787B"/>
<path transform="translate(824,785)" d="m0 0h3l-2 16h-1v-14l-2-1z" fill="#4F5861"/>
<path transform="translate(394,770)" d="m0 0 1 4-2 5h-2l-1 4-1-3v-3h2l-1-3z" fill="#454855"/>
<path transform="translate(969,630)" d="m0 0 2 2-1 7-2 2-4-1 3-3z" fill="#100D12"/>
<path transform="translate(946,499)" d="m0 0h1l1 5v7l-3-1-1-5z" fill="#302E3B"/>
<path transform="translate(787,414)" d="m0 0 5 1 1 2-3 3-5-3z" fill="#656364"/>
<path transform="translate(900,358)" d="m0 0 12 6 1 2-8-2-5-3z" fill="#5E6065"/>
<path transform="translate(710,349)" d="m0 0 3 1 1 2h9l3 2-13 1-3-4z" fill="#43444E"/>
<path transform="translate(527,306)" d="m0 0 4 1v12l-2-3z" fill="#708A8E"/>
<path transform="translate(374,200)" d="m0 0 4 1-1 3-6 3-2-1z" fill="#76888B"/>
<path transform="translate(281,1684)" d="m0 0 2 4h-2l-2 4-5 6h-2l2-4 5-6z" fill="#555B60"/>
<path transform="translate(1067,1612)" d="m0 0 4 1v7l-3 2-1-4v-3z" fill="#212026"/>
<path transform="translate(1056,1608)" d="m0 0 1 2h2l2 6v5l-3-2-2-6z" fill="#100D12"/>
<path transform="translate(763,1142)" d="m0 0h1l2 7 1 4v2l5 1-3 1-3-1-3-6z" fill="#4E555E"/>
<path transform="translate(934,1116)" d="m0 0 4 2-1 4-1 2h-2l-1-7z" fill="#436267"/>
<path transform="translate(429,1029)" d="m0 0 4 1-6 10-2 2-1-4 4-6z" fill="#5B6065"/>
<path transform="translate(918,952)" d="m0 0 2 3 4-1 3-1-1 4-5 2h-3z" fill="#4A6E71"/>
<path transform="translate(408,727)" d="m0 0h1v7l-4 6h-2l1-6 2-2h1z" fill="#606468"/>
<path transform="translate(697,710)" d="m0 0v3l-4 3-1 6-2-3-1-4 4-3z" fill="#100D12"/>
<path transform="translate(959,533)" d="m0 0 2 3 6 10-1 2-7-9z" fill="#5C6167"/>
<path transform="translate(752,489)" d="m0 0 4 1 2 2h-4v5l-4-4v-3z" fill="#100D12"/>
<path transform="translate(914,366)" d="m0 0 8 6 3 3h-3l-4-2v-2l-4-1z" fill="#515760"/>
<path transform="translate(517,119)" d="m0 0h5l-4 4-6 4-2-1 5-5h2z" fill="#7B7F81"/>
<path transform="translate(532,1495)" d="m0 0 2 1-5 10h-1v-7z" fill="#3D414B"/>
<path transform="translate(935,1458)" d="m0 0h5l1 7h2v3h2l-1 3-4-5-3-6z" fill="#69787C"/>
<path transform="translate(889,1406)" d="m0 0 5 2 3 2v6l-5-5z" fill="#728E92"/>
<path transform="translate(809,1401)" d="m0 0h4l-1 4-3 3h-2v-5h2z" fill="#3E444F"/>
<path transform="translate(706,1251)" d="m0 0 5 1 5 7-1 2-9-9z" fill="#6C7D80"/>
<path transform="translate(824,1217)" d="m0 0 1 3-1 3-8 3v-2z" fill="#7BD0D7"/>
<path transform="translate(767,1156)" d="m0 0 6 2 1 6-6-4z" fill="#6E6F70"/>
<path transform="translate(666,776)" d="m0 0 3 1v2l-9 2v-3z" fill="#1E1D23"/>
<path transform="translate(468,434)" d="m0 0 2 1-1 3h-3v2l2 1-6 3-2-1 4-4 2-4z" fill="#798688"/>
<path transform="translate(585,393)" d="m0 0h3v2l-4 1h-11l1-2z" fill="#302E3B"/>
<path transform="translate(635,1294)" d="m0 0 4 2 2 5-1 4-5-9z" fill="#78878A"/>
<path transform="translate(816,1196)" d="m0 0 3 1-7 6h-2l2-5z" fill="#81D9E1"/>
<path transform="translate(957,1057)" d="m0 0 3 1-1 4-2 2h-3l1-5h2z" fill="#436267"/>
<path transform="translate(448,739)" d="m0 0h2l1 7 3 3v2l-4-1-1-1z" fill="#454855"/>
<path transform="translate(760,414)" d="m0 0 3 1-8 4-6 1 4-4z" fill="#100D12"/>
<path transform="translate(546,413)" d="m0 0 1 4-3 3-8 1 4-2z" fill="#76A1A7"/>
<path transform="translate(326,1677)" d="m0 0h8v2l2 1-6 1-3-1z" fill="#656364"/>
<path transform="translate(964,1563)" d="m0 0 5 1 1 1v6h-2v-4h-3z" fill="#798283"/>
<path transform="translate(879,1377)" d="m0 0 1 3h2v6l3 2-5-1-1-1z" fill="#4A6E71"/>
<path transform="translate(702,1244)" d="m0 0 5 1 4 7-5-1-2-6z" fill="#454855"/>
<path transform="translate(376,1067)" d="m0 0 2 1v2l5 2-4 3-4-4z" fill="#121015"/>
<path transform="translate(873,345)" d="m0 0h7l2 1 1 6 2 1-4 1v-7h-8z" fill="#4D4F59"/>
</svg>
